<svg xmlns="http://www.w3.org/2000/svg" xmlns:xlink="http://www.w3.org/1999/xlink" viewBox="0 0 742.79 306.17"><defs><style>.cls-1{fill:url(#New_Gradient_Swatch_3);}.cls-2{fill:url(#New_Gradient_Swatch_3-2);}.cls-3{fill:url(#New_Gradient_Swatch_3-3);}.cls-4{fill:url(#New_Gradient_Swatch_3-4);}.cls-5{fill:url(#New_Gradient_Swatch_3-5);}.cls-6{fill:url(#New_Gradient_Swatch_3-6);}.cls-7{fill:url(#New_Gradient_Swatch_3-7);}.cls-8{fill:url(#New_Gradient_Swatch_3-8);}.cls-9{fill:url(#New_Gradient_Swatch_3-9);}.cls-10{fill:url(#New_Gradient_Swatch_3-10);}.cls-11{fill:url(#New_Gradient_Swatch_3-11);}.cls-12{fill:none;clip-rule:evenodd;}.cls-13{isolation:isolate;}.cls-14{clip-path:url(#clip-path);}.cls-15{opacity:0.25;}.cls-16{fill:#58595b;}.cls-17{fill:#fff;}.cls-18{fill:#808285;}.cls-19{fill:#939598;}.cls-20,.cls-22{opacity:0.86;}.cls-20{fill:url(#radial-gradient);}.cls-21,.cls-23{opacity:0.03;mix-blend-mode:screen;}.cls-21{fill:url(#radial-gradient-2);}.cls-22{fill:url(#radial-gradient-3);}.cls-23{fill:url(#radial-gradient-4);}.cls-24{fill:#ef4136;}.cls-25{fill:#414042;}.cls-26{fill:#6d6e71;}.cls-27{fill:#010101;fill-rule:evenodd;}.cls-28{mix-blend-mode:multiply;fill:url(#linear-gradient);}.cls-29{fill:url(#New_Gradient_Swatch_5);}.cls-30{fill:url(#New_Gradient_Swatch_6);}.cls-31{fill:url(#New_Gradient_Swatch_5-2);}.cls-32{fill:url(#New_Gradient_Swatch_5-3);}.cls-33{fill:url(#New_Gradient_Swatch_5-4);}.cls-34{fill:url(#New_Gradient_Swatch_5-5);}.cls-35{fill:url(#New_Gradient_Swatch_5-6);}.cls-36{fill:url(#New_Gradient_Swatch_5-7);}.cls-37{fill:url(#New_Gradient_Swatch_5-8);}.cls-38{fill:url(#New_Gradient_Swatch_5-9);}.cls-39{fill:url(#New_Gradient_Swatch_5-10);}.cls-40{mask:url(#mask);}.cls-41{fill:#1b75bc;}.cls-42{mask:url(#mask-2);}.cls-43{fill:#00aeef;}.cls-44{mask:url(#mask-3);}.cls-45{mask:url(#mask-4);}.cls-46{mask:url(#mask-5);}.cls-47{mask:url(#mask-6);}.cls-48{mask:url(#mask-7);}.cls-49{mask:url(#mask-8);}.cls-50{mask:url(#mask-9);}.cls-51{mask:url(#mask-10);}.cls-52{mask:url(#mask-11);}</style><radialGradient id="New_Gradient_Swatch_3" cx="507.92" cy="496.49" r="96.73" gradientTransform="matrix(3.12, -0.06, 0.05, 0.2, -1169.79, 172.82)" gradientUnits="userSpaceOnUse"><stop offset="0" stop-color="#fff"/><stop offset="1"/></radialGradient><radialGradient id="New_Gradient_Swatch_3-2" cx="507.85" cy="751.57" r="79.78" gradientTransform="matrix(3.12, -0.06, 0.02, 0.08, -1161.01, 208.96)" xlink:href="#New_Gradient_Swatch_3"/><radialGradient id="New_Gradient_Swatch_3-3" cx="571.15" cy="-1460.17" r="36.69" gradientTransform="matrix(2.87, -0.39, 0.01, 0.03, -1047.26, 379.73)" xlink:href="#New_Gradient_Swatch_3"/><radialGradient id="New_Gradient_Swatch_3-4" cx="513.83" cy="1729.22" r="79.81" gradientTransform="matrix(2.63, -0.05, 0.01, 0.03, -921.56, 221.46)" xlink:href="#New_Gradient_Swatch_3"/><radialGradient id="New_Gradient_Swatch_3-5" cx="485.54" cy="557.87" r="79.03" gradientTransform="matrix(3.63, -0.05, 0.04, 0.2, -1454.34, 168.7)" xlink:href="#New_Gradient_Swatch_3"/><radialGradient id="New_Gradient_Swatch_3-6" cx="485.79" cy="900.58" r="65.19" gradientTransform="matrix(3.63, -0.05, 0.02, 0.08, -1447.08, 204.75)" xlink:href="#New_Gradient_Swatch_3"/><radialGradient id="New_Gradient_Swatch_3-7" cx="487.54" cy="2165.65" r="65.15" gradientTransform="matrix(3.06, -0.04, 0.01, 0.03, -1169.22, 218.62)" xlink:href="#New_Gradient_Swatch_3"/><radialGradient id="New_Gradient_Swatch_3-8" cx="543.24" cy="335.75" r="26.84" gradientTransform="matrix(9.45, -1.07, 0.07, 0.21, -4744.78, 659.82)" xlink:href="#New_Gradient_Swatch_3"/><radialGradient id="New_Gradient_Swatch_3-9" cx="555.71" cy="376.76" r="26.83" gradientTransform="matrix(7.96, -0.9, 0.02, 0.07, -4015.97, 625.46)" xlink:href="#New_Gradient_Swatch_3"/><radialGradient id="New_Gradient_Swatch_3-10" cx="556.09" cy="78.22" r="44.43" gradientTransform="matrix(3.4, -0.46, 0.07, 0.19, -1322.48, 361.8)" xlink:href="#New_Gradient_Swatch_3"/><radialGradient id="New_Gradient_Swatch_3-11" cx="556.05" cy="-242.09" r="36.68" gradientTransform="matrix(3.4, -0.46, 0.03, 0.08, -1310.1, 396.54)" xlink:href="#New_Gradient_Swatch_3"/><clipPath id="clip-path"><path class="cls-12" d="M177.69,136.94s20.42-5.09,58.05-2.92l81.4,4.67,144-7.6,184.39-26.83c3.33-25.33-5.2-34.94-10.87-45.17S599.35,25.25,588,18.23,558.45,8,538.94,4.22s-69.2-6.32-107.56-1.8-101.88,27-144.63,46.83-85.49,53.8-106.85,80Z"/></clipPath><radialGradient id="radial-gradient" cx="818.35" cy="-1318.26" r="1.76" gradientTransform="matrix(1.13, 0.92, -0.98, 1.05, -1653.17, 895.28)" gradientUnits="userSpaceOnUse"><stop offset="0.05" stop-color="#fff"/><stop offset="0.13" stop-color="#fff" stop-opacity="0.89"/><stop offset="0.38" stop-color="#fff" stop-opacity="0.58"/><stop offset="0.6" stop-color="#fff" stop-opacity="0.33"/><stop offset="0.78" stop-color="#fff" stop-opacity="0.15"/><stop offset="0.92" stop-color="#fff" stop-opacity="0.04"/><stop offset="1" stop-color="#fff" stop-opacity="0"/></radialGradient><radialGradient id="radial-gradient-2" cx="-1249.97" cy="-1531.87" r="1.44" gradientTransform="matrix(2.25, 1.77, -1.3, 1.43, 1368.81, 4674.4)" gradientUnits="userSpaceOnUse"><stop offset="0" stop-color="#fff"/><stop offset="0.17" stop-color="#fff" stop-opacity="0.96"/><stop offset="0.45" stop-color="#fff" stop-opacity="0.87"/><stop offset="0.8" stop-color="#fff" stop-opacity="0.71"/><stop offset="1" stop-color="#fff" stop-opacity="0.6"/></radialGradient><radialGradient id="radial-gradient-3" cx="818.34" cy="-1317.84" r="1.76" xlink:href="#radial-gradient"/><radialGradient id="radial-gradient-4" cx="-1249.97" cy="-1531.51" r="1.44" gradientTransform="matrix(2.25, 1.77, -1.3, 1.43, 1368.87, 4674.34)" xlink:href="#radial-gradient-2"/><linearGradient id="linear-gradient" x1="122.02" y1="218.79" x2="692.28" y2="218.79" gradientUnits="userSpaceOnUse"><stop offset="0" stop-color="#231f20"/><stop offset="0.16" stop-color="#322e30"/><stop offset="0.47" stop-color="#595759"/><stop offset="0.89" stop-color="#97989b"/><stop offset="1" stop-color="#a7a9ac"/></linearGradient><linearGradient id="New_Gradient_Swatch_5" x1="402.94" y1="231.31" x2="402.94" y2="112.03" gradientTransform="matrix(0.98, -0.07, 0.29, 0.99, -54.14, 73.02)" gradientUnits="userSpaceOnUse"><stop offset="0" stop-color="#999"/><stop offset="0.06" stop-color="#b8b8b8"/><stop offset="0.12" stop-color="#d2d2d2"/><stop offset="0.19" stop-color="#e6e6e6"/><stop offset="0.26" stop-color="#f4f4f4"/><stop offset="0.36" stop-color="#fdfdfd"/><stop offset="0.52" stop-color="#fff"/><stop offset="0.68" stop-color="#e0e0e0"/><stop offset="1" stop-color="#999"/></linearGradient><linearGradient id="New_Gradient_Swatch_6" x1="368.47" y1="131.35" x2="369.68" y2="265.06" gradientTransform="translate(-0.24 0.2) rotate(-0.06)" gradientUnits="userSpaceOnUse"><stop offset="0" stop-color="#fff"/><stop offset="0.17" stop-color="#262626"/><stop offset="0.27" stop-color="#b3b3b3"/><stop offset="0.4" stop-color="#bfbfbf"/><stop offset="0.54" stop-color="#999"/><stop offset="0.63" stop-color="#949494"/><stop offset="0.72" stop-color="#eaeaea"/><stop offset="0.79" stop-color="#fff"/><stop offset="1" stop-color="#4d4d4d"/></linearGradient><linearGradient id="New_Gradient_Swatch_5-2" x1="122.05" y1="179.73" x2="122.05" y2="247.89" gradientTransform="matrix(1, -0.01, -0.2, 1, 45.46, 0.9)" xlink:href="#New_Gradient_Swatch_5"/><linearGradient id="New_Gradient_Swatch_5-3" x1="179.94" y1="173.99" x2="179.94" y2="248.32" gradientTransform="matrix(1, -0.01, -0.2, 1, 45.46, 0.9)" xlink:href="#New_Gradient_Swatch_5"/><linearGradient id="New_Gradient_Swatch_5-4" x1="238.32" y1="169.24" x2="238.32" y2="248.67" gradientTransform="matrix(1, -0.01, -0.2, 1, 45.46, 0.9)" xlink:href="#New_Gradient_Swatch_5"/><linearGradient id="New_Gradient_Swatch_5-5" x1="303.28" y1="162.29" x2="303.28" y2="249.8" gradientTransform="matrix(1, -0.01, -0.2, 1, 45.46, 0.9)" xlink:href="#New_Gradient_Swatch_5"/><linearGradient id="New_Gradient_Swatch_5-6" x1="362.58" y1="154.5" x2="362.58" y2="250.29" gradientTransform="matrix(1, -0.01, -0.2, 1, 45.46, 0.9)" xlink:href="#New_Gradient_Swatch_5"/><linearGradient id="New_Gradient_Swatch_5-7" x1="407.31" y1="151.67" x2="407.31" y2="249.8" gradientTransform="matrix(1, -0.01, -0.2, 1, 45.46, 0.9)" xlink:href="#New_Gradient_Swatch_5"/><linearGradient id="New_Gradient_Swatch_5-8" x1="461.53" y1="143.09" x2="461.53" y2="250.39" gradientTransform="matrix(1, -0.01, -0.2, 1, 45.46, 0.9)" xlink:href="#New_Gradient_Swatch_5"/><linearGradient id="New_Gradient_Swatch_5-9" x1="532.2" y1="132.17" x2="532.2" y2="251.07" gradientTransform="matrix(1, -0.01, -0.2, 1, 45.46, 0.9)" xlink:href="#New_Gradient_Swatch_5"/><linearGradient id="New_Gradient_Swatch_5-10" x1="595.87" y1="125.58" x2="595.87" y2="251.4" gradientTransform="matrix(1, -0.01, -0.2, 1, 45.46, 0.9)" xlink:href="#New_Gradient_Swatch_5"/><mask id="mask" x="138.2" y="222.37" width="604.59" height="39.61" maskUnits="userSpaceOnUse"><path class="cls-1" d="M742.76,236.76C745.25,247.28,612,258.23,445,261.22s-304.29-3.11-306.78-13.64S269,226.11,436,223.12,740.27,226.24,742.76,236.76Z"/></mask><mask id="mask-2" x="191.11" y="234.25" width="498.78" height="15.84" maskUnits="userSpaceOnUse"><path class="cls-2" d="M689.88,237.71c.86,3.61-110.1,8.53-247.83,11S192,250.25,191.11,246.64s110.1-8.54,247.84-11S689,234.09,689.88,237.71Z"/></mask><mask id="mask-3" x="230.59" y="237.88" width="419.81" height="8.59" maskUnits="userSpaceOnUse"><path class="cls-4" d="M650.4,238.41c.27,1.15-93.48,3.76-209.41,5.83s-210.13,2.83-210.4,1.69,93.49-3.76,209.42-5.83S650.13,237.27,650.4,238.41Z"/></mask><mask id="mask-4" x="46.92" y="239.19" width="574.11" height="32.05" maskUnits="userSpaceOnUse"><path class="cls-5" d="M621,251.41c1.93,8.6-125,17.27-283.53,19.37S48.87,267.61,46.94,259s125-17.27,283.53-19.37S619.07,242.81,621,251.41Z"/></mask><mask id="mask-5" x="97.15" y="249.02" width="473.65" height="12.39" maskUnits="userSpaceOnUse"><path class="cls-6" d="M570.79,252.07c.67,3-104.82,6.75-235.61,8.48s-237.37.75-238-2.2S202,251.6,332.77,249.87,570.14,249.12,570.79,252.07Z"/></mask><mask id="mask-6" x="134.64" y="252.07" width="398.66" height="6.27" maskUnits="userSpaceOnUse"><path class="cls-7" d="M533.3,252.57c.21.94-88.86,2.88-198.95,4.33s-199.5,1.89-199.71,1,88.86-2.88,199-4.33S533.09,251.64,533.3,252.57Z"/></mask><mask id="mask-7" x="160.45" y="123.1" width="507.69" height="58.41" maskUnits="userSpaceOnUse"><path class="cls-8" d="M668.14,123.68c1,3.17-111.77,18.55-252,34.36s-254.69,26.06-255.72,22.9,111.77-18.55,252-34.36S667.11,120.51,668.14,123.68Z"/></mask><mask id="mask-8" x="200.65" y="128.14" width="427.31" height="48.34" maskUnits="userSpaceOnUse"><path class="cls-9" d="M628,128.21c.32,1-95.06,12.61-213.06,25.92S201,177.41,200.65,176.41s95-12.61,213.06-25.92S627.63,127.21,628,128.21Z"/></mask><mask id="mask-9" x="424.8" y="99.5" width="302.56" height="44.31" maskUnits="userSpaceOnUse"><path class="cls-10" d="M727.33,101.25c1.68,4.77-64.68,17.77-148.21,29s-152.61,16.54-154.29,11.77S489.5,124.29,573,113,725.65,96.48,727.33,101.25Z"/></mask><mask id="mask-10" x="451.28" y="104.56" width="249.59" height="34.19" maskUnits="userSpaceOnUse"><path class="cls-11" d="M700.87,104.82c.58,1.64-54.83,10.5-123.75,19.8s-125.26,15.5-125.83,13.86S506.11,128,575,118.69,700.3,103.18,700.87,104.82Z"/></mask><mask id="mask-11" x="471.04" y="107.45" width="210.07" height="28.4" maskUnits="userSpaceOnUse"><path class="cls-3" d="M681.11,107.49c.19.51-46.69,7.28-104.7,15.1S471.22,136.33,471,135.82s46.7-7.28,104.71-15.11S680.93,107,681.11,107.49Z"/></mask></defs><title>Artboard 1</title><g class="cls-13"><g id="Layer_1" data-name="Layer 1"><g class="cls-14"><g class="cls-15"><path class="cls-16" d="M540.5,54.47c68,43.89,33.5,146.1-97.64,214.5s-252.93,47.71-267.14-24.24c-11-55.57,48.13-126.83,129.69-169.37S488,20.58,540.5,54.47ZM205.29,229.3c15.21,57,115.77,70.23,220.49,15.61S563,107.67,510.93,69.9C469,39.46,383.05,48.66,312.56,85.43S193.05,183.37,205.29,229.3Z"/><path d="M526.26,61.9c60.09,41,26.27,133.6-91.83,195.2S204.83,301.88,190,237.3c-11.72-50.9,42.52-117.36,118.83-157.17S478.91,29.58,526.26,61.9ZM191.05,236.73c14.91,64,125.62,80.57,242.75,19.48s150.87-153,91.37-193.74c-47-32.19-140.2-21.56-216.11,18S179.28,186.19,191.05,236.73Z"/><path class="cls-17" d="M540.5,54.46l1.82,1.21L512.36,71c-1-.73-1.95-1.45-3-2.16l29.15-15.57ZM546,58.27c1.16.89,2.32,1.82,3.44,2.76L517.87,75.66c-.87-.82-1.77-1.64-2.68-2.41ZM534.59,51,506.25,66.77c-1.05-.65-2.15-1.29-3.26-1.9l27.5-16.06C531.88,49.5,533.26,50.22,534.59,51Zm18.09,13c1.06,1,2.09,2,3.07,3.08l-33,13.82c-.74-.89-1.52-1.79-2.33-2.66ZM526.25,46.84,499.6,63.09c-1.15-.57-2.33-1.12-3.51-1.64L521.86,45C523.34,45.59,524.81,46.2,526.25,46.84Zm32.37,23.44c.92,1.11,1.81,2.25,2.65,3.4L526.82,86.57c-.62-1-1.28-2-2-2.91ZM517.35,43.34,492.46,59.93c-1.23-.48-2.49-1-3.75-1.39l24-16.72C514.28,42.3,515.84,42.81,517.35,43.34Zm46.35,33.9c.77,1.21,1.51,2.46,2.2,3.72L530.15,92.78c-.48-1.07-1-2.13-1.56-3.16ZM508,40.45,484.85,57.28c-1.28-.4-2.61-.78-4-1.14l22.24-16.91C504.78,39.61,506.41,40,508,40.45Zm59.86,44.41c.61,1.32,1.18,2.68,1.7,4L532.66,99.49c-.34-1.15-.73-2.3-1.15-3.42ZM498.18,38.15l-21.33,17c-1.36-.32-2.75-.62-4.14-.9l20.44-17C494.84,37.51,496.53,37.82,498.18,38.15Zm72.8,55c.43,1.42.82,2.88,1.16,4.34l-37.86,9.22c-.19-1.23-.43-2.45-.7-3.64ZM488,36.43l-19.54,17c-1.42-.24-2.86-.45-4.29-.65l18.65-17C484.58,36,486.32,36.2,488,36.43Zm85,65.5c.25,1.51.44,3.07.59,4.63L535,114.26c0-1.3-.11-2.6-.23-3.85ZM477.6,35.28l-17.76,17c-1.46-.16-2.95-.3-4.44-.41l16.88-17C474.06,35,475.85,35.13,477.6,35.28Zm96.29,76c0,1.62,0,3.27,0,4.9l-39.19,6c.13-1.35.22-2.71.26-4.05Zm-107-76.66-16,16.92c-1.5-.08-3-.15-4.56-.19l15.11-16.85C463.28,34.56,465.11,34.6,466.9,34.66ZM456,34.55,441.73,51.31c-1.51,0-3.08,0-4.65,0l13.37-16.66C452.32,34.62,454.17,34.58,456,34.55Zm117.56,86.69c-.16,1.66-.37,3.39-.64,5.12l-39.52,4.28c.3-1.44.56-2.86.78-4.24ZM444.89,35,432.38,51.49c-1.56.06-3.15.14-4.73.25l11.64-16.41C441.16,35.18,443,35.05,444.89,35Zm127,96.66c-.38,1.76-.81,3.57-1.29,5.35l-39.58,2.35c.47-1.46.9-2.93,1.29-4.38ZM433.67,35.82,422.88,52.09c-1.6.13-3.21.29-4.81.45L428,36.44C429.9,36.22,431.8,36,433.67,35.82ZM569,142.41c-.6,1.84-1.26,3.7-2,5.53l-39.37.31c.64-1.48,1.25-3,1.82-4.5ZM422.35,37.17l-9.1,15.93c-1.61.2-3.24.42-4.86.66L416.68,38C418.56,37.7,420.47,37.42,422.35,37.17Zm142.4,116.38c-.83,1.88-1.72,3.79-2.65,5.68l-38.86-1.82c.82-1.53,1.62-3.08,2.35-4.6ZM411,39l-7.45,15.56c-1.61.27-3.26.56-4.88.85L405.29,40C407.18,39.64,409.09,39.28,411,39ZM559.12,165c-1,1.91-2.17,3.86-3.33,5.79l-38-4c1-1.56,2-3.13,2.88-4.67ZM399.58,41.16l-5.82,15.15-4.9,1,5-14.92C395.79,42,397.71,41.56,399.58,41.16ZM552.11,176.58c-1.27,1.94-2.62,3.9-4,5.85l-36.91-6.35c1.17-1.56,2.32-3.14,3.41-4.69Zm-8.36,11.71c-1.51,2-3.08,3.93-4.69,5.87l-35.44-8.71c1.33-1.55,2.65-3.13,3.91-4.68ZM388.16,43.8,384,58.48c-1.64.39-3.29.81-4.9,1.22l3.39-14.43C384.35,44.77,386.26,44.27,388.16,43.8ZM534,200c-1.72,1.95-3.52,3.91-5.34,5.83l-33.65-11.09c1.49-1.52,3-3.08,4.4-4.63ZM376.78,46.83,374.19,61c-1.63.46-3.27.93-4.89,1.41l1.81-13.92C373,47.93,374.89,47.37,376.78,46.83ZM523.05,211.61c-1.93,1.91-3.95,3.84-6,5.74L485.51,203.9c1.66-1.51,3.31-3,4.89-4.55ZM365.44,50.26l-1,13.64c-1.61.51-3.25,1-4.86,1.57l.24-13.36C361.68,51.48,363.57,50.86,365.44,50.26ZM510.78,223c-2.14,1.88-4.36,3.77-6.58,5.6l-29.13-15.78c1.79-1.46,3.58-2.95,5.33-4.44Zm-156.6-169,.55,13.06-4.81,1.73-1.3-12.75C350.45,55.41,352.33,54.72,354.18,54.06ZM497.36,234.13c-2.32,1.81-4.72,3.63-7.12,5.4L463.8,221.48c1.93-1.4,3.86-2.84,5.73-4.27ZM343.07,58.22l2.07,12.44c-1.57.61-3.18,1.25-4.75,1.89l-2.83-12.13C339.39,59.67,341.24,58.93,343.07,58.22ZM482.89,244.8c-2.48,1.73-5,3.45-7.58,5.13l-23.51-20.2c2-1.33,4.09-2.7,6.09-4.07ZM332.09,62.72l3.57,11.79c-1.57.67-3.16,1.36-4.7,2l-4.3-11.46C328.45,64.29,330.27,63.49,332.09,62.72ZM467.52,254.91c-2.64,1.64-5.33,3.27-8,4.83l-20.38-22.21c2.13-1.24,4.28-2.53,6.39-3.83ZM321.27,67.54l5,11.13c-1.54.71-3.1,1.45-4.63,2.18l-5.75-10.78C317.7,69.22,319.49,68.37,321.27,67.54ZM451.38,264.39c-2.74,1.52-5.53,3-8.32,4.47l-17.11-24c2.23-1.16,4.46-2.36,6.65-3.57ZM310.64,72.68l6.46,10.43c-1.51.76-3,1.54-4.54,2.32l-.25.13-7.15-10.07.25-.13C307.14,74.46,308.9,73.55,310.64,72.68ZM419.19,248.26l15.43,24.88c-2.81,1.38-5.69,2.76-8.55,4.08l-13.73-25.68C414.63,250.47,416.93,249.37,419.19,248.26ZM307.83,88c-1.47.79-3,1.62-4.44,2.45l-8.56-9.31c1.71-1,3.43-1.91,5.14-2.84Zm97.59,166.7,12,26.44c-2.9,1.26-5.84,2.49-8.75,3.66l-10.2-27.15C400.77,256.65,403.11,255.66,405.42,254.65ZM299,92.92c-1.45.85-2.91,1.71-4.32,2.58L284.74,87c1.65-1,3.34-2,5-3Zm92.42,167.45,8.42,27.8c-2.9,1.09-5.87,2.16-8.83,3.19L384.38,263C386.74,262.13,389.12,261.25,391.43,260.37Zm-101-162.24c-1.42.9-2.83,1.8-4.21,2.7l-11.3-7.7c1.6-1,3.24-2.09,4.88-3.11Zm86.9,167.24,4.84,28.94c-2.92.93-5.89,1.83-8.84,2.69l-3.07-29.41C372.61,266.88,375,266.13,377.32,265.37ZM282.07,103.59Q280,105,278,106.4l-12.65-6.84c1.55-1.08,3.15-2.18,4.74-3.25Zm81.14,166,1.28,29.83c-2.94.77-5.9,1.51-8.8,2.19l.48-30.19C358.49,270.88,360.86,270.26,363.21,269.62ZM274,109.27c-1.32,1-2.64,1.94-3.93,2.92l-14-5.94c1.5-1.13,3-2.26,4.58-3.37Zm75.17,163.82L347,303.57c-2.88.6-5.78,1.16-8.63,1.67l3.92-30.71C344.53,274.09,346.86,273.6,349.18,273.09ZM266.23,115.17c-1.24,1-2.51,2-3.75,3l-15.27-5c1.46-1.18,2.94-2.35,4.4-3.49Zm69.14,160.6-5.58,30.87c-2.81.43-5.64.81-8.41,1.15l7.22-31C330.84,276.5,333.12,276.15,335.37,275.77ZM258.8,121.24c-1.2,1-2.4,2.06-3.58,3.1l-16.55-4c1.39-1.21,2.81-2.42,4.23-3.6Zm63.13,156.41-8.81,31c-2.71.24-5.43.46-8.1.62l10.33-31C317.52,278.11,319.73,277.89,321.93,277.65ZM251.71,127.5c-1.14,1.06-2.29,2.13-3.41,3.2l-17.77-3c1.32-1.24,2.67-2.49,4-3.71Zm57.2,151.23-11.82,30.95c-2.57.08-5.18.12-7.74.12L302.6,279C304.69,278.93,306.82,278.84,308.91,278.73ZM245,133.94c-1.08,1.08-2.16,2.19-3.21,3.28l-19-2c1.25-1.27,2.54-2.55,3.82-3.81ZM296.44,279,281.8,309.68c-2.45-.08-4.91-.2-7.32-.36l15.93-30.42C292.4,279,294.43,279,296.44,279ZM238.65,140.54c-1,1.1-2,2.23-3,3.35L215.49,143c1.19-1.3,2.39-2.62,3.6-3.9Zm45.92,138-17.2,30.15c-2.31-.24-4.62-.51-6.88-.82l18.39-29.83C280.75,278.27,282.66,278.44,284.57,278.58Zm-51.84-131.3c-.94,1.13-1.88,2.28-2.79,3.42l-21.27.18c1.09-1.32,2.22-2.66,3.35-4ZM273.38,277.4l-19.53,29.46c-2.16-.38-4.3-.8-6.39-1.26l20.59-29.06C269.79,276.85,271.59,277.14,273.38,277.4ZM227.26,154.15c-.86,1.14-1.72,2.31-2.56,3.47L202.34,159c1-1.35,2.06-2.72,3.1-4Zm35.67,121.37-21.61,28.61c-2-.51-3.95-1.07-5.87-1.66L258,274.33C259.61,274.75,261.27,275.15,262.93,275.52Zm-40.66-114.4c-.79,1.16-1.56,2.34-2.31,3.51l-23.41,2.54c.92-1.38,1.87-2.76,2.83-4.13Zm31,111.86L229.83,300.6c-1.81-.65-3.61-1.33-5.34-2.05l24.25-27.07C250.21,272,251.74,272.51,253.27,273ZM217.79,168.17c-.71,1.18-1.39,2.38-2,3.55l-24.42,3.78c.81-1.38,1.67-2.79,2.54-4.18Zm26.64,101.66-25,26.5c-1.64-.77-3.26-1.58-4.8-2.4L240.33,268C241.65,268.66,243,269.26,244.43,269.83Zm-30.59-94.55c-.61,1.2-1.2,2.4-1.75,3.58l-25.36,5.06c.71-1.4,1.46-2.82,2.22-4.22Zm22.61,90.83L210.1,291.37c-1.45-.87-2.88-1.78-4.24-2.71l26.92-24.61C234,264.76,235.2,265.45,236.45,266.11Zm-26-83.67c-.51,1.19-1,2.39-1.46,3.58l-26.24,6.4c.6-1.41,1.23-2.84,1.89-4.26Zm18.86,79.42L201.9,285.8c-1.26-1-2.5-2-3.68-3l27.9-23.25C227.15,260.34,228.24,261.12,229.34,261.86ZM207.72,189.6c-.41,1.19-.79,2.4-1.14,3.58l-27,7.78c.48-1.42,1-2.86,1.53-4.28Zm15.38,67.53-28.3,22.54c-1.08-1.06-2.14-2.15-3.14-3.26l28.65-21.82C221.2,255.45,222.14,256.31,223.1,257.13Zm-17.49-60.38c-.3,1.19-.57,2.39-.81,3.56L177,209.51c.35-1.42.73-2.85,1.15-4.28ZM217.74,252,188.8,273c-.9-1.13-1.77-2.31-2.59-3.48l29.18-20.35C216.14,250.14,216.93,251.06,217.74,252Zm-13.57-48.1c-.18,1.17-.33,2.35-.45,3.51L175.34,218c.21-1.4.46-2.82.75-4.23Zm9.09,42.53L183.89,266c-.72-1.2-1.42-2.44-2.06-3.67l29.51-18.85C212,244.45,212.59,245.43,213.26,246.38Zm-9.81-35.53c-.06,1.16-.09,2.32-.09,3.46l-28.89,12.11c.07-1.39.18-2.8.33-4.2Zm6.19,29.62L180,258.55c-.55-1.25-1.07-2.54-1.54-3.82l29.65-17.33C208.61,238.43,209.12,239.46,209.64,240.47Zm-6.18-22.73c.06,1.13.16,2.27.29,3.39l-29.28,13.59c-.07-1.36-.11-2.75-.11-4.13Zm3.41,16.52-29.65,16.57c-.39-1.3-.74-2.63-1-4l29.61-15.83Q206.29,232.67,206.87,234.26Zm-2.64-9.78c.2,1.11.43,2.23.68,3.31l-29.53,15.09c-.23-1.34-.42-2.7-.57-4.06Z"/><path class="cls-18" d="M501.09,74.92,502.48,76l-12.14,6.19-1.24-1-1.19-.9,11.85-6.33C500.21,74.26,500.65,74.59,501.09,74.92Zm4,3.24c.83.74,1.65,1.51,2.43,2.29l-12.71,5.89c-.69-.73-1.41-1.44-2.15-2.13ZM496.9,72l-11.54,6.45c-.88-.59-1.78-1.16-2.68-1.71L493.9,70.2C494.91,70.77,495.92,71.39,496.9,72Zm12.86,10.84c.74.82,1.45,1.67,2.11,2.52l-13.24,5.54c-.57-.79-1.2-1.57-1.84-2.34Zm-19-14.35-10.91,6.66c-.95-.51-1.93-1-2.92-1.49l10.59-6.75C488.64,67.43,489.73,68,490.79,68.5Zm23,19.51c.62.9,1.22,1.83,1.76,2.75l-13.72,5.13c-.47-.85-1-1.71-1.52-2.54ZM484.19,65.47,473.94,72.3c-1-.44-2.06-.86-3.13-1.27l9.91-6.9C481.9,64.56,483.07,65,484.19,65.47Zm33,28.16c.5,1,1,2,1.39,3l-14.15,4.67c-.36-.91-.75-1.83-1.18-2.74Zm-40-30.72-9.57,7c-1.09-.37-2.21-.72-3.33-1.06l9.22-7C474.7,62.15,475.94,62.52,477.15,62.91Zm42.59,36.8q.54,1.59,1,3.21l-14.52,4.16c-.24-1-.51-2-.82-2.94Zm-50-38.89-8.86,7.05c-1.15-.3-2.33-.58-3.51-.84l8.52-7.09C467.14,60.21,468.44,60.51,469.7,60.82Zm51.81,45.41c.22,1.11.42,2.26.57,3.41l-14.81,3.6c-.11-1-.25-2.1-.43-3.12Zm-59.59-47-8.16,7.11c-1.2-.22-2.42-.43-3.65-.63l7.8-7.12C459.26,58.75,460.61,59,461.92,59.19Zm60.51,54c.08,1.19.13,2.4.14,3.6l-15,3c0-1.1,0-2.2,0-3.29ZM453.83,58l-7.44,7.13c-1.24-.15-2.51-.3-3.79-.42l7.09-7.13C451.08,57.72,452.48,57.86,453.83,58Zm68.64,62.42c-.07,1.25-.18,2.52-.32,3.78L507,126.55c.15-1.14.28-2.3.37-3.44Zm-77-63.15-6.73,7.12c-1.28-.09-2.59-.16-3.9-.22l6.37-7.11C442.65,57.13,444.09,57.2,445.48,57.29ZM436.9,57l-6,7.07c-1.33,0-2.68,0-4,0L432.54,57C434,57,435.46,57,436.9,57Zm84.69,71.08c-.23,1.31-.49,2.63-.8,3.93l-15.18,1.63c.3-1.18.57-2.38.8-3.57Zm-93.46-71-5.3,7c-1.35,0-2.72.09-4.1.16l4.95-7C425.17,57.22,426.67,57.15,428.13,57.1ZM519.77,136c-.39,1.35-.82,2.71-1.27,4.06l-15.13.9c.44-1.23.85-2.47,1.23-3.69ZM419.2,57.62l-4.6,6.91c-1.35.1-2.75.22-4.15.35L414.69,58C416.2,57.87,417.72,57.73,419.2,57.62ZM517,144.18c-.55,1.39-1.14,2.79-1.75,4.18l-15,.11c.58-1.25,1.14-2.52,1.66-3.78ZM410.15,58.53l-3.89,6.79c-1.4.17-2.81.34-4.21.54l3.54-6.73C407.1,58.91,408.63,58.71,410.15,58.53Zm103.09,94c-.7,1.41-1.46,2.84-2.23,4.25l-14.7-.69c.73-1.27,1.43-2.57,2.09-3.84ZM401,59.82l-3.19,6.66c-1.41.22-2.84.45-4.25.7l2.84-6.58C397.94,60.33,399.48,60.07,401,59.82ZM508.52,161.11c-.85,1.41-1.77,2.86-2.71,4.3l-14.33-1.52c.88-1.3,1.73-2.61,2.52-3.89ZM391.8,61.48,389.31,68c-1.41.28-2.84.57-4.27.88l2.15-6.4C388.73,62.11,390.29,61.78,391.8,61.48ZM502.85,169.73c-1,1.43-2.1,2.89-3.2,4.33l-13.83-2.38c1-1.3,2-2.61,2.94-3.9Zm-6.63,8.66c-1.2,1.45-2.43,2.91-3.67,4.32l-13.22-3.25c1.13-1.27,2.25-2.58,3.34-3.88ZM382.57,63.5l-1.81,6.31c-1.41.33-2.85.68-4.28,1l1.46-6.21C379.48,64.25,381,63.86,382.57,63.5ZM488.67,187c-1.34,1.43-2.72,2.87-4.12,4.27L472,187.16c1.27-1.26,2.52-2.55,3.74-3.84ZM373.32,65.87,372.2,72c-1.42.38-2.86.79-4.28,1.2l.78-6C370.23,66.73,371.78,66.29,373.32,65.87ZM480.24,195.51c-1.49,1.42-3,2.83-4.56,4.21l-11.68-5c1.38-1.24,2.77-2.5,4.11-3.77ZM364.09,68.58l-.44,5.88c-1.4.43-2.84.89-4.26,1.36l.1-5.77C361,69.55,362.57,69.05,364.09,68.58ZM470.94,203.87c-1.61,1.36-3.27,2.74-4.94,4.09l-10.78-5.84c1.52-1.21,3-2.44,4.47-3.66Zm-116-132.26.23,5.64c-1.39.48-2.81,1-4.22,1.51l-.56-5.52C351.88,72.68,353.41,72.14,354.91,71.61ZM460.87,212c-1.72,1.31-3.5,2.64-5.31,3.94l-9.76-6.65c1.63-1.17,3.24-2.36,4.79-3.54Zm-115-137,.89,5.38c-1.38.53-2.79,1.09-4.17,1.65l-1.22-5.25C342.82,76.13,344.34,75.52,345.83,75ZM450.09,219.76c-1.84,1.25-3.73,2.51-5.63,3.75l-8.66-7.44c1.71-1.11,3.41-2.24,5.07-3.37ZM336.85,78.59l1.55,5.1c-1.38.58-2.77,1.19-4.13,1.79l-1.86-5C333.87,79.86,335.37,79.22,336.85,78.59ZM438.69,227.15c-1.92,1.18-3.9,2.37-5.89,3.54l-7.52-8.17c1.8-1.05,3.59-2.12,5.32-3.18ZM328,82.51l2.18,4.81c-1.35.63-2.71,1.27-4.06,1.92l-2.49-4.67C325.08,83.87,326.55,83.18,328,82.51ZM426.78,234.1c-2,1.12-4.09,2.22-6.13,3.29l-6.3-8.85c1.84-1,3.7-1.95,5.51-2.95ZM319.3,86.7l2.79,4.52c-1.31.66-2.65,1.34-4,2l-.21.11L314.81,89l.2-.11Zm89.45,144.69,5.69,9.15c-2.08,1-4.2,2-6.31,3l-5.05-9.46C405,233.23,406.89,232.31,408.75,231.39ZM314,95.46c-1.29.7-2.6,1.43-3.9,2.16l-3.7-4c1.39-.79,2.8-1.57,4.19-2.33ZM397.35,236.7l4.42,9.74c-2.15.94-4.31,1.85-6.44,2.73l-3.75-10C393.49,238.38,395.43,237.55,397.35,236.7ZM306.23,99.83c-1.28.75-2.56,1.51-3.8,2.27l-4.3-3.69c1.33-.81,2.71-1.63,4.09-2.44Zm79.53,141.65,3.11,10.25c-2.16.83-4.35,1.64-6.5,2.41l-2.45-10.48C381.86,243,383.82,242.23,385.76,241.48ZM298.7,104.42c-1.24.78-2.48,1.58-3.69,2.38l-4.89-3.34c1.3-.85,2.64-1.71,4-2.55Zm75.37,141.27,1.78,10.69c-2.17.72-4.37,1.41-6.52,2.07l-1.13-10.88C370.14,247,372.11,246.34,374.07,245.69ZM291.39,109.22c-1.19.81-2.39,1.64-3.56,2.48l-5.47-3c1.27-.89,2.56-1.79,3.85-2.66Zm71,140.08.47,11c-2.17.6-4.36,1.18-6.5,1.72l.18-11.19C358.43,250.38,360.4,249.85,362.35,249.3Zm-78-135.08c-1.14.84-2.29,1.7-3.42,2.57l-6-2.56c1.22-.93,2.47-1.87,3.71-2.77Zm66.35,138.07-.83,11.31c-2.13.48-4.28.94-6.41,1.36l1.46-11.42C346.82,253.15,348.76,252.73,350.68,252.29ZM277.55,119.41c-1.09.87-2.19,1.76-3.27,2.65l-6.57-2.16c1.16-1,2.35-1.92,3.54-2.85Zm61.63,135.23-2.09,11.5c-2.08.36-4.19.69-6.26,1l2.69-11.56C335.4,255.28,337.3,255,339.18,254.64ZM271.09,124.75c-1,.9-2.09,1.82-3.11,2.73l-7.12-1.74c1.11-1,2.25-2,3.38-2.94Zm56.85,131.59-3.3,11.6c-2,.24-4.07.45-6.07.63L322.44,257C324.25,256.77,326.1,256.57,327.94,256.34Zm-63-126.09c-1,.93-2,1.87-2.95,2.81l-7.63-1.3c1-1,2.13-2,3.21-3ZM317,257.4,312.59,269c-2,.12-3.93.21-5.85.27l5-11.6C313.47,257.62,315.26,257.52,317,257.4ZM259.13,135.9c-.94.95-1.87,1.92-2.77,2.88l-8.13-.86c1-1,2-2.08,3-3.1Zm47.41,121.92L301,269.39c-1.89,0-3.77,0-5.59-.08l6-11.5C303.12,257.84,304.83,257.84,306.54,257.82ZM253.68,141.68c-.87,1-1.74,2-2.58,2.94l-8.6-.4c.91-1.06,1.86-2.12,2.81-3.17Zm42.83,116L290,269.06c-1.76-.11-3.54-.25-5.29-.41l7-11.34C293.29,257.44,294.91,257.55,296.51,257.63Zm-47.9-110c-.79,1-1.6,2-2.37,3l-9.06.08c.85-1.09,1.73-2.17,2.6-3.23ZM287,256.83l-7.44,11.24c-1.67-.22-3.33-.47-5-.74l7.87-11.11C284,256.45,285.49,256.66,287,256.83ZM244,153.56c-.73,1-1.46,2-2.16,3l-9.5.57c.78-1.1,1.58-2.2,2.38-3.28Zm34.14,101.9-8.29,11c-1.55-.33-3.11-.68-4.61-1.05l8.67-10.82C275.25,254.89,276.67,255.19,278.1,255.46Zm-38.35-95.83c-.66,1-1.31,2-1.94,3.06l-9.9,1.07c.69-1.1,1.41-2.22,2.13-3.31Zm30.05,93.9-9,10.65c-1.44-.42-2.86-.87-4.25-1.34l9.38-10.47C267.17,252.78,268.48,253.17,269.8,253.53ZM236,165.76c-.58,1-1.15,2-1.7,3.07L224,170.42c.61-1.11,1.24-2.24,1.88-3.34Zm26.16,85.33-9.69,10.27c-1.31-.51-2.61-1.06-3.86-1.62l10-10.06C259.76,250.17,261,250.64,262.16,251.09Zm-29.42-79.17c-.5,1-1,2.06-1.44,3.09l-10.65,2.12c.51-1.12,1.06-2.25,1.61-3.36Zm22.48,76.23L244.94,258c-1.18-.6-2.34-1.23-3.46-1.87L252,246.5C253,247.07,254.12,247.62,255.22,248.15ZM230,178.09c-.42,1-.81,2.07-1.17,3.09l-11,2.67c.42-1.11.86-2.24,1.33-3.36Zm19,66.66-10.76,9.39c-1-.67-2.07-1.38-3.06-2.1l11-9.15C247.05,243.53,248,244.16,249,244.75ZM227.8,184.26c-.32,1-.62,2.06-.88,3.07l-11.26,3.24c.31-1.11.65-2.23,1-3.35Zm15.65,56.67-11.17,8.89c-.91-.75-1.81-1.53-2.67-2.32L241,238.86C241.76,239.57,242.6,240.26,243.45,240.93Zm-17.27-50.54c-.22,1-.41,2-.58,3.05l-11.51,3.81c.2-1.11.44-2.23.7-3.34Zm12.46,46.32-11.49,8.37c-.78-.81-1.53-1.66-2.25-2.51l11.61-8.11C237.19,235.23,237.91,236,238.64,236.71Zm-13.47-40.26c-.12,1-.21,2-.28,3l-11.71,4.39c.1-1.08.22-2.19.37-3.28Zm9.4,35.69L222.84,240c-.64-.87-1.27-1.77-1.85-2.68l11.81-7.55C233.36,230.55,234,231.36,234.57,232.14Zm-9.79-29.73c0,1,0,2,0,2.93l-11.86,5c0-1.06,0-2.15,0-3.23Zm6.44,24.84-11.89,7.27c-.51-.93-1-1.88-1.45-2.83l11.94-7C230.26,225.56,230.73,226.42,231.22,227.25Zm-6.19-19c.1.95.22,1.92.38,2.86l-12,5.55c-.14-1-.25-2.1-.33-3.15Zm3.56,13.85-12,6.7c-.38-1-.74-2-1.07-3l12-6.41C227.86,220.32,228.22,221.22,228.59,222.09ZM226,213.92c.21.93.44,1.86.71,2.77l-12,6.13c-.26-1-.49-2-.7-3.06Z"/><path class="cls-19" d="M490.16,86.74a47.17,47.17,0,0,1,7,8.8l-14.67,5.71a40.63,40.63,0,0,0-5.95-8Zm-9.06-7.26-12.47,7.11a60,60,0,0,0-9.56-5.27l11.16-7.54A70.17,70.17,0,0,1,481.1,79.48Zm20.55,26.35a46.65,46.65,0,0,1,1.83,11.64l-16,3.52a42.49,42.49,0,0,0-1.32-10.45ZM457.81,69.66l-9.72,7.8A99.53,99.53,0,0,0,435.9,75l8.24-7.91A113,113,0,0,1,457.81,69.66Zm44.57,60.61A74.7,74.7,0,0,1,498.23,144l-15.94.64a69.26,69.26,0,0,0,4-12.21ZM429.51,66l-6.73,7.89c-4.47-.14-9.13-.06-13.83.22l5.21-7.75C419.38,66,424.54,65.91,429.51,66ZM491,158.34A132.24,132.24,0,0,1,480.58,173l-14.35-2.73a119.83,119.83,0,0,0,9.37-12.9ZM398.33,68.1l-3.7,7.5c-4.8.68-9.72,1.58-14.6,2.65l2.2-7.14C387.62,69.9,393,68.89,398.33,68.1Zm68.91,119.38a201.43,201.43,0,0,1-16.05,14l-11.09-6.19c5.06-3.95,9.85-8.09,14.23-12.28ZM366.06,75.33l-.72,6.7c-4.87,1.43-9.78,3.06-14.61,4.83L350,80.68C355.3,78.72,360.71,76.92,366.06,75.33Zm66.77,139.18c-6.41,4.11-13.19,8-20.14,11.67L406.14,217c6.12-3.2,12.1-6.66,17.75-10.27ZM334.24,87.09l2.15,5.59c-4.68,2.07-9.37,4.33-13.93,6.71l-.21.11-3.49-4.93.21-.11C324,91.86,329.11,89.38,334.24,87.09Zm53.11,138.72,4,10.36c-7.22,3-14.6,5.71-21.93,8l-1.36-11.27C374.5,230.86,381,228.47,387.35,225.81ZM308.92,107c-4.33,2.63-8.57,5.41-12.6,8.26l-6.09-3.39c4.45-3.12,9.11-6.17,13.87-9.06Zm39.86,131.12L347.52,250c-7.16,1.55-14.3,2.73-21.21,3.52l3.74-12.17C336.16,240.62,342.46,239.54,348.78,238.14Zm-64.16-114c-3.73,3-7.3,6.23-10.64,9.44L265.55,132c3.7-3.53,7.66-7,11.77-10.37Zm27.72,118.41-6,12.15a146.11,146.11,0,0,1-18.23-1l8-11.85A133.78,133.78,0,0,0,312.34,242.59Zm-47.8-99.08c-2.93,3.37-5.65,6.81-8.08,10.23l-10.44.42c2.73-3.77,5.77-7.56,9-11.26Zm17,95.78L272,250.59a85,85,0,0,1-13.79-5l11-10.54A79.74,79.74,0,0,0,281.59,239.29Zm-31.7-75.12a86.2,86.2,0,0,0-4.88,10.5l-12,2.66a97.92,97.92,0,0,1,5.6-11.64Zm9,65.07-12,9.62a50.8,50.8,0,0,1-8.61-8.16L251,222.15A46.07,46.07,0,0,0,258.9,229.24ZM242,185.08a51.74,51.74,0,0,0-1,10.14L228,200.27a58.76,58.76,0,0,1,1.4-11.35Zm3.4,28.88-13,7.42A44.77,44.77,0,0,1,229,211.16l13.09-6.25A40.43,40.43,0,0,0,245.38,214Z"/><path class="cls-19" d="M596.62,36.06a107,107,0,0,1,17.27,14L586.25,60.88a89.52,89.52,0,0,0-14.47-13ZM576.4,25.16l-22,12.51a140.88,140.88,0,0,0-19.6-7.58l19-12.85A166.82,166.82,0,0,1,576.4,25.16Zm51,42.3a85.1,85.1,0,0,1,8.81,20.64l-32.37,7.14a74.84,74.84,0,0,0-6.65-18.57ZM529.6,12.12,513.48,25.06a218.82,218.82,0,0,0-22.69-2.65L504.1,9.62C512.82,10.05,521.4,10.89,529.6,12.12Zm109.89,99.73a113.73,113.73,0,0,1-3,26.54l-34.71,1.39a106.22,106.22,0,0,0,3.73-23.4ZM477.84,9.51,467.22,22c-7.89.2-16,.74-24.14,1.59l8.07-12C460.12,10.54,469.1,9.84,477.84,9.51ZM626.71,167.19a206.66,206.66,0,0,1-17.12,30.29l-33.19-6.31a190.32,190.32,0,0,0,15.78-26.24ZM424.31,15.61,418.68,27c-8.09,1.44-16.3,3.18-24.42,5.19l3.31-10.72C406.45,19.23,415.45,17.26,424.31,15.61Zm160.8,212.66a345.22,345.22,0,0,1-31.5,30.13l-26.75-14.93a314.1,314.1,0,0,0,27.65-25.81ZM371.1,29,370,39c-8,2.5-16,5.29-23.86,8.29l-1.08-9.1C353.65,34.89,362.4,31.81,371.1,29ZM516,286.56a471.12,471.12,0,0,1-42.29,25l-16-22.49a422.45,422.45,0,0,0,36.53-21.47ZM319.72,48.78,322.87,57c-7.59,3.42-15.2,7.11-22.61,11l-.34.18-5.11-7.21.33-.17C303.2,56.53,311.46,52.52,319.72,48.78ZM418.7,307l9.76,25.28A469,469,0,0,1,382,348.07l-3.28-27.2C392.05,317,405.52,312.34,418.7,307ZM278.18,80.29C271.1,84.54,264.13,89,257.46,93.6l-9-5c7.29-5,14.9-9.84,22.63-14.46Zm61,249.84-3,28.16A365.53,365.53,0,0,1,293,362.86l8.64-28.16A333.76,333.76,0,0,0,339.22,330.13ZM237.94,108c-6.28,5-12.38,10.1-18.13,15.31l-12.65-2.38c6.34-5.68,13.05-11.28,20-16.67Zm29.17,226.76L253.65,362a228.1,228.1,0,0,1-34.44-5.69l17.34-25.81A212.59,212.59,0,0,0,267.11,334.71ZM203.25,139.47c-5.26,5.56-10.23,11.27-14.77,17l-16.15.65c5.1-6.26,10.65-12.51,16.49-18.57Zm7.28,183.21-20.25,23.78a128.3,128.3,0,0,1-23.16-13.38l22.25-21.39A119.25,119.25,0,0,0,210.53,322.68ZM175.77,174.12a182.16,182.16,0,0,0-10.35,18.17L146,196.58A210.32,210.32,0,0,1,158,176.51Zm-2.64,124-23.42,18.8a87.1,87.1,0,0,1-11.86-18.19l23.85-16.14A77.81,77.81,0,0,0,173.13,298.14Zm-15.35-87.36a117.28,117.28,0,0,0-4.55,18.59L131.15,238a136.63,136.63,0,0,1,5.8-20.84Zm-2.95,54.87-23.69,13.51a97,97,0,0,1-2.07-20.39l23.06-11A83,83,0,0,0,154.83,265.65Z"/><path class="cls-18" d="M555.64,46.5l-8.72,4.55a110.05,110.05,0,0,0-17.38-8.8l7.66-4.79A119.16,119.16,0,0,1,555.64,46.5Zm15.71,11.86A76.72,76.72,0,0,1,583.6,73.12l-10.68,3.62a72,72,0,0,0-11.31-14.21ZM516.57,31.15,510,36.05a178.88,178.88,0,0,0-21.2-3.72l5.46-4.9A191.14,191.14,0,0,1,516.57,31.15Zm75.07,59.64a77.52,77.52,0,0,1,3.11,20.39l-12,1.95a73.62,73.62,0,0,0-2.55-19.46ZM470.85,26.12,466.45,31c-7.52-.1-15.31.16-23.16.76L446.66,27C454.85,26.38,463,26.07,470.85,26.12ZM592.31,134a127.33,127.33,0,0,1-8.45,24.71l-12.19-.48A124.33,124.33,0,0,0,580,134.8ZM422.07,30l-2.39,4.46c-7.85,1.22-15.84,2.77-23.77,4.59l1.45-4.22C405.6,32.91,413.91,31.28,422.07,30Zm147,154.66A234.11,234.11,0,0,1,548,211l-10.74-3.47a225.07,225.07,0,0,0,20.11-24.81ZM372.77,41.41l-.54,3.91c-7.8,2.36-15.66,5-23.36,7.88l-.35-3.58C356.52,46.62,364.67,43.86,372.77,41.41ZM521,236.73a357.29,357.29,0,0,1-32.21,24l-7.57-6.46a341.91,341.91,0,0,0,30.42-22.6ZM324.84,59.33,326,62.54c-7.44,3.32-14.88,6.92-22.13,10.7l-.35.18-2-2.82.31-.17C309.41,66.5,317.12,62.77,324.84,59.33ZM447.11,274.41l5.48,7.73-.28.14a417.37,417.37,0,0,1-38.44,17.65l-3.25-8.71c12.25-4.92,24.44-10.52,36.21-16.66Zm-164.79-189c-6.9,4.18-13.68,8.59-20.15,13.11l-3.57-1.9c6.73-4.69,13.76-9.25,20.93-13.58Zm90.9,218.7.93,9.41A364.7,364.7,0,0,1,335,322.3l1.32-9.77A351.43,351.43,0,0,0,373.22,304.06ZM243.3,112.65c-6.05,4.89-11.88,10-17.36,15.13l-5-.83c5.71-5.34,11.79-10.62,18.08-15.69Zm58,203.86L298,326.3a251.68,251.68,0,0,1-33.74-.63l5.07-9.51A244.08,244.08,0,0,0,301.3,316.51Zm-91-172.74c-4.92,5.48-9.52,11.1-13.67,16.72l-6.4.43c4.36-5.84,9.18-11.68,14.33-17.37Zm30.83,168-6.48,9a142.24,142.24,0,0,1-24.79-8.58l7.52-8.26A138.66,138.66,0,0,0,241.14,311.82Zm-55.91-134a150,150,0,0,0-8.81,17.69l-7.6,1.91a160.56,160.56,0,0,1,9.39-18.46Zm13.12,115.34-8.24,7.41a82.3,82.3,0,0,1-14.68-14.2l8.66-6.48A79.62,79.62,0,0,0,198.35,293.13Zm-27.78-79.8A93,93,0,0,0,168.08,231l-8.48,3.64a99.86,99.86,0,0,1,2.88-18.6Zm3.91,51.41-8.8,5.51a73.63,73.63,0,0,1-5.14-17.38l8.73-4.57A69.38,69.38,0,0,0,174.48,264.74Z"/></g><g class="cls-15"><path class="cls-16" d="M540.5,54.47c68,43.89,33.5,146.1-97.64,214.5s-252.93,47.71-267.14-24.24c-11-55.57,48.13-126.83,129.69-169.37S488,20.58,540.5,54.47ZM205.29,229.3c15.21,57,115.77,70.23,220.49,15.61S563,107.67,510.93,69.9C469,39.46,383.05,48.66,312.56,85.43S193.05,183.37,205.29,229.3Z"/><path d="M526.26,61.9c60.09,41,26.27,133.6-91.83,195.2S204.83,301.88,190,237.3c-11.72-50.9,42.52-117.36,118.83-157.17S478.91,29.58,526.26,61.9ZM191.05,236.73c14.91,64,125.62,80.57,242.75,19.48s150.87-153,91.37-193.74c-47-32.19-140.2-21.56-216.11,18S179.28,186.19,191.05,236.73Z"/><path class="cls-17" d="M540.5,54.46l1.82,1.21L512.36,71c-1-.73-1.95-1.45-3-2.16l29.15-15.57ZM546,58.27c1.16.89,2.32,1.82,3.44,2.76L517.87,75.66c-.87-.82-1.77-1.64-2.68-2.41ZM534.59,51,506.25,66.77c-1.05-.65-2.15-1.29-3.26-1.9l27.5-16.06C531.88,49.5,533.26,50.22,534.59,51Zm18.09,13c1.06,1,2.09,2,3.07,3.08l-33,13.82c-.74-.89-1.52-1.79-2.33-2.66ZM526.25,46.84,499.6,63.09c-1.15-.57-2.33-1.12-3.51-1.64L521.86,45C523.34,45.59,524.81,46.2,526.25,46.84Zm32.37,23.44c.92,1.11,1.81,2.25,2.65,3.4L526.82,86.57c-.62-1-1.28-2-2-2.91ZM517.35,43.34,492.46,59.93c-1.23-.48-2.49-1-3.75-1.39l24-16.72C514.28,42.3,515.84,42.81,517.35,43.34Zm46.35,33.9c.77,1.21,1.51,2.46,2.2,3.72L530.15,92.78c-.48-1.07-1-2.13-1.56-3.16ZM508,40.45,484.85,57.28c-1.28-.4-2.61-.78-4-1.14l22.24-16.91C504.78,39.61,506.41,40,508,40.45Zm59.86,44.41c.61,1.32,1.18,2.68,1.7,4L532.66,99.49c-.34-1.15-.73-2.3-1.15-3.42ZM498.18,38.15l-21.33,17c-1.36-.32-2.75-.62-4.14-.9l20.44-17C494.84,37.51,496.53,37.82,498.18,38.15Zm72.8,55c.43,1.42.82,2.88,1.16,4.34l-37.86,9.22c-.19-1.23-.43-2.45-.7-3.64ZM488,36.43l-19.54,17c-1.42-.24-2.86-.45-4.29-.65l18.65-17C484.58,36,486.32,36.2,488,36.43Zm85,65.5c.25,1.51.44,3.07.59,4.63L535,114.26c0-1.3-.11-2.6-.23-3.85ZM477.6,35.28l-17.76,17c-1.46-.16-2.95-.3-4.44-.41l16.88-17C474.06,35,475.85,35.13,477.6,35.28Zm96.29,76c0,1.62,0,3.27,0,4.9l-39.19,6c.13-1.35.22-2.71.26-4.05Zm-107-76.66-16,16.92c-1.5-.08-3-.15-4.56-.19l15.11-16.85C463.28,34.56,465.11,34.6,466.9,34.66ZM456,34.55,441.73,51.31c-1.51,0-3.08,0-4.65,0l13.37-16.66C452.32,34.62,454.17,34.58,456,34.55Zm117.56,86.69c-.16,1.66-.37,3.39-.64,5.12l-39.52,4.28c.3-1.44.56-2.86.78-4.24ZM444.89,35,432.38,51.49c-1.56.06-3.15.14-4.73.25l11.64-16.41C441.16,35.18,443,35.05,444.89,35Zm127,96.66c-.38,1.76-.81,3.57-1.29,5.35l-39.58,2.35c.47-1.46.9-2.93,1.29-4.38ZM433.67,35.82,422.88,52.09c-1.6.13-3.21.29-4.81.45L428,36.44C429.9,36.22,431.8,36,433.67,35.82ZM569,142.41c-.6,1.84-1.26,3.7-2,5.53l-39.37.31c.64-1.48,1.25-3,1.82-4.5ZM422.35,37.17l-9.1,15.93c-1.61.2-3.24.42-4.86.66L416.68,38C418.56,37.7,420.47,37.42,422.35,37.17Zm142.4,116.38c-.83,1.88-1.72,3.79-2.65,5.68l-38.86-1.82c.82-1.53,1.62-3.08,2.35-4.6ZM411,39l-7.45,15.56c-1.61.27-3.26.56-4.88.85L405.29,40C407.18,39.64,409.09,39.28,411,39ZM559.12,165c-1,1.91-2.17,3.86-3.33,5.79l-38-4c1-1.56,2-3.13,2.88-4.67ZM399.58,41.16l-5.82,15.15-4.9,1,5-14.92C395.79,42,397.71,41.56,399.58,41.16ZM552.11,176.58c-1.27,1.94-2.62,3.9-4,5.85l-36.91-6.35c1.17-1.56,2.32-3.14,3.41-4.69Zm-8.36,11.71c-1.51,2-3.08,3.93-4.69,5.87l-35.44-8.71c1.33-1.55,2.65-3.13,3.91-4.68ZM388.16,43.8,384,58.48c-1.64.39-3.29.81-4.9,1.22l3.39-14.43C384.35,44.77,386.26,44.27,388.16,43.8ZM534,200c-1.72,1.95-3.52,3.91-5.34,5.83l-33.65-11.09c1.49-1.52,3-3.08,4.4-4.63ZM376.78,46.83,374.19,61c-1.63.46-3.27.93-4.89,1.41l1.81-13.92C373,47.93,374.89,47.37,376.78,46.83ZM523.05,211.61c-1.93,1.91-3.95,3.84-6,5.74L485.51,203.9c1.66-1.51,3.31-3,4.89-4.55ZM365.44,50.26l-1,13.64c-1.61.51-3.25,1-4.86,1.57l.24-13.36C361.68,51.48,363.57,50.86,365.44,50.26ZM510.78,223c-2.14,1.88-4.36,3.77-6.58,5.6l-29.13-15.78c1.79-1.46,3.58-2.95,5.33-4.44Zm-156.6-169,.55,13.06-4.81,1.73-1.3-12.75C350.45,55.41,352.33,54.72,354.18,54.06ZM497.36,234.13c-2.32,1.81-4.72,3.63-7.12,5.4L463.8,221.48c1.93-1.4,3.86-2.84,5.73-4.27ZM343.07,58.22l2.07,12.44c-1.57.61-3.18,1.25-4.75,1.89l-2.83-12.13C339.39,59.67,341.24,58.93,343.07,58.22ZM482.89,244.8c-2.48,1.73-5,3.45-7.58,5.13l-23.51-20.2c2-1.33,4.09-2.7,6.09-4.07ZM332.09,62.72l3.57,11.79c-1.57.67-3.16,1.36-4.7,2l-4.3-11.46C328.45,64.29,330.27,63.49,332.09,62.72ZM467.52,254.91c-2.64,1.64-5.33,3.27-8,4.83l-20.38-22.21c2.13-1.24,4.28-2.53,6.39-3.83ZM321.27,67.54l5,11.13c-1.54.71-3.1,1.45-4.63,2.18l-5.75-10.78C317.7,69.22,319.49,68.37,321.27,67.54ZM451.38,264.39c-2.74,1.52-5.53,3-8.32,4.47l-17.11-24c2.23-1.16,4.46-2.36,6.65-3.57ZM310.64,72.68l6.46,10.43c-1.51.76-3,1.54-4.54,2.32l-.25.13-7.15-10.07.25-.13C307.14,74.46,308.9,73.55,310.64,72.68ZM419.19,248.26l15.43,24.88c-2.81,1.38-5.69,2.76-8.55,4.08l-13.73-25.68C414.63,250.47,416.93,249.37,419.19,248.26ZM307.83,88c-1.47.79-3,1.62-4.44,2.45l-8.56-9.31c1.71-1,3.43-1.91,5.14-2.84Zm97.59,166.7,12,26.44c-2.9,1.26-5.84,2.49-8.75,3.66l-10.2-27.15C400.77,256.65,403.11,255.66,405.42,254.65ZM299,92.92c-1.45.85-2.91,1.71-4.32,2.58L284.74,87c1.65-1,3.34-2,5-3Zm92.42,167.45,8.42,27.8c-2.9,1.09-5.87,2.16-8.83,3.19L384.38,263C386.74,262.13,389.12,261.25,391.43,260.37Zm-101-162.24c-1.42.9-2.83,1.8-4.21,2.7l-11.3-7.7c1.6-1,3.24-2.09,4.88-3.11Zm86.9,167.24,4.84,28.94c-2.92.93-5.89,1.83-8.84,2.69l-3.07-29.41C372.61,266.88,375,266.13,377.32,265.37ZM282.07,103.59Q280,105,278,106.4l-12.65-6.84c1.55-1.08,3.15-2.18,4.74-3.25Zm81.14,166,1.28,29.83c-2.94.77-5.9,1.51-8.8,2.19l.48-30.19C358.49,270.88,360.86,270.26,363.21,269.62ZM274,109.27c-1.32,1-2.64,1.94-3.93,2.92l-14-5.94c1.5-1.13,3-2.26,4.58-3.37Zm75.17,163.82L347,303.57c-2.88.6-5.78,1.16-8.63,1.67l3.92-30.71C344.53,274.09,346.86,273.6,349.18,273.09ZM266.23,115.17c-1.24,1-2.51,2-3.75,3l-15.27-5c1.46-1.18,2.94-2.35,4.4-3.49Zm69.14,160.6-5.58,30.87c-2.81.43-5.64.81-8.41,1.15l7.22-31C330.84,276.5,333.12,276.15,335.37,275.77ZM258.8,121.24c-1.2,1-2.4,2.06-3.58,3.1l-16.55-4c1.39-1.21,2.81-2.42,4.23-3.6Zm63.13,156.41-8.81,31c-2.71.24-5.43.46-8.1.62l10.33-31C317.52,278.11,319.73,277.89,321.93,277.65ZM251.71,127.5c-1.14,1.06-2.29,2.13-3.41,3.2l-17.77-3c1.32-1.24,2.67-2.49,4-3.71Zm57.2,151.23-11.82,30.95c-2.57.08-5.18.12-7.74.12L302.6,279C304.69,278.93,306.82,278.84,308.91,278.73ZM245,133.94c-1.08,1.08-2.16,2.19-3.21,3.28l-19-2c1.25-1.27,2.54-2.55,3.82-3.81ZM296.44,279,281.8,309.68c-2.45-.08-4.91-.2-7.32-.36l15.93-30.42C292.4,279,294.43,279,296.44,279ZM238.65,140.54c-1,1.1-2,2.23-3,3.35L215.49,143c1.19-1.3,2.39-2.62,3.6-3.9Zm45.92,138-17.2,30.15c-2.31-.24-4.62-.51-6.88-.82l18.39-29.83C280.75,278.27,282.66,278.44,284.57,278.58Zm-51.84-131.3c-.94,1.13-1.88,2.28-2.79,3.42l-21.27.18c1.09-1.32,2.22-2.66,3.35-4ZM273.38,277.4l-19.53,29.46c-2.16-.38-4.3-.8-6.39-1.26l20.59-29.06C269.79,276.85,271.59,277.14,273.38,277.4ZM227.26,154.15c-.86,1.14-1.72,2.31-2.56,3.47L202.34,159c1-1.35,2.06-2.72,3.1-4Zm35.67,121.37-21.61,28.61c-2-.51-3.95-1.07-5.87-1.66L258,274.33C259.61,274.75,261.27,275.15,262.93,275.52Zm-40.66-114.4c-.79,1.16-1.56,2.34-2.31,3.51l-23.41,2.54c.92-1.38,1.87-2.76,2.83-4.13Zm31,111.86L229.83,300.6c-1.81-.65-3.61-1.33-5.34-2.05l24.25-27.07C250.21,272,251.74,272.51,253.27,273ZM217.79,168.17c-.71,1.18-1.39,2.38-2,3.55l-24.42,3.78c.81-1.38,1.67-2.79,2.54-4.18Zm26.64,101.66-25,26.5c-1.64-.77-3.26-1.58-4.8-2.4L240.33,268C241.65,268.66,243,269.26,244.43,269.83Zm-30.59-94.55c-.61,1.2-1.2,2.4-1.75,3.58l-25.36,5.06c.71-1.4,1.46-2.82,2.22-4.22Zm22.61,90.83L210.1,291.37c-1.45-.87-2.88-1.78-4.24-2.71l26.92-24.61C234,264.76,235.2,265.45,236.45,266.11Zm-26-83.67c-.51,1.19-1,2.39-1.46,3.58l-26.24,6.4c.6-1.41,1.23-2.84,1.89-4.26Zm18.86,79.42L201.9,285.8c-1.26-1-2.5-2-3.68-3l27.9-23.25C227.15,260.34,228.24,261.12,229.34,261.86ZM207.72,189.6c-.41,1.19-.79,2.4-1.14,3.58l-27,7.78c.48-1.42,1-2.86,1.53-4.28Zm15.38,67.53-28.3,22.54c-1.08-1.06-2.14-2.15-3.14-3.26l28.65-21.82C221.2,255.45,222.14,256.31,223.1,257.13Zm-17.49-60.38c-.3,1.19-.57,2.39-.81,3.56L177,209.51c.35-1.42.73-2.85,1.15-4.28ZM217.74,252,188.8,273c-.9-1.13-1.77-2.31-2.59-3.48l29.18-20.35C216.14,250.14,216.93,251.06,217.74,252Zm-13.57-48.1c-.18,1.17-.33,2.35-.45,3.51L175.34,218c.21-1.4.46-2.82.75-4.23Zm9.09,42.53L183.89,266c-.72-1.2-1.42-2.44-2.06-3.67l29.51-18.85C212,244.45,212.59,245.43,213.26,246.38Zm-9.81-35.53c-.06,1.16-.09,2.32-.09,3.46l-28.89,12.11c.07-1.39.18-2.8.33-4.2Zm6.19,29.62L180,258.55c-.55-1.25-1.07-2.54-1.54-3.82l29.65-17.33C208.61,238.43,209.12,239.46,209.64,240.47Zm-6.18-22.73c.06,1.13.16,2.27.29,3.39l-29.28,13.59c-.07-1.36-.11-2.75-.11-4.13Zm3.41,16.52-29.65,16.57c-.39-1.3-.74-2.63-1-4l29.61-15.83Q206.29,232.67,206.87,234.26Zm-2.64-9.78c.2,1.11.43,2.23.68,3.31l-29.53,15.09c-.23-1.34-.42-2.7-.57-4.06Z"/><path class="cls-18" d="M501.09,74.92,502.48,76l-12.14,6.19-1.24-1-1.19-.9,11.85-6.33C500.21,74.26,500.65,74.59,501.09,74.92Zm4,3.24c.83.74,1.65,1.51,2.43,2.29l-12.71,5.89c-.69-.73-1.41-1.44-2.15-2.13ZM496.9,72l-11.54,6.45c-.88-.59-1.78-1.16-2.68-1.71L493.9,70.2C494.91,70.77,495.92,71.39,496.9,72Zm12.86,10.84c.74.82,1.45,1.67,2.11,2.52l-13.24,5.54c-.57-.79-1.2-1.57-1.84-2.34Zm-19-14.35-10.91,6.66c-.95-.51-1.93-1-2.92-1.49l10.59-6.75C488.64,67.43,489.73,68,490.79,68.5Zm23,19.51c.62.9,1.22,1.83,1.76,2.75l-13.72,5.13c-.47-.85-1-1.71-1.52-2.54ZM484.19,65.47,473.94,72.3c-1-.44-2.06-.86-3.13-1.27l9.91-6.9C481.9,64.56,483.07,65,484.19,65.47Zm33,28.16c.5,1,1,2,1.39,3l-14.15,4.67c-.36-.91-.75-1.83-1.18-2.74Zm-40-30.72-9.57,7c-1.09-.37-2.21-.72-3.33-1.06l9.22-7C474.7,62.15,475.94,62.52,477.15,62.91Zm42.59,36.8q.54,1.59,1,3.21l-14.52,4.16c-.24-1-.51-2-.82-2.94Zm-50-38.89-8.86,7.05c-1.15-.3-2.33-.58-3.51-.84l8.52-7.09C467.14,60.21,468.44,60.51,469.7,60.82Zm51.81,45.41c.22,1.11.42,2.26.57,3.41l-14.81,3.6c-.11-1-.25-2.1-.43-3.12Zm-59.59-47-8.16,7.11c-1.2-.22-2.42-.43-3.65-.63l7.8-7.12C459.26,58.75,460.61,59,461.92,59.19Zm60.51,54c.08,1.19.13,2.4.14,3.6l-15,3c0-1.1,0-2.2,0-3.29ZM453.83,58l-7.44,7.13c-1.24-.15-2.51-.3-3.79-.42l7.09-7.13C451.08,57.72,452.48,57.86,453.83,58Zm68.64,62.42c-.07,1.25-.18,2.52-.32,3.78L507,126.55c.15-1.14.28-2.3.37-3.44Zm-77-63.15-6.73,7.12c-1.28-.09-2.59-.16-3.9-.22l6.37-7.11C442.65,57.13,444.09,57.2,445.48,57.29ZM436.9,57l-6,7.07c-1.33,0-2.68,0-4,0L432.54,57C434,57,435.46,57,436.9,57Zm84.69,71.08c-.23,1.31-.49,2.63-.8,3.93l-15.18,1.63c.3-1.18.57-2.38.8-3.57Zm-93.46-71-5.3,7c-1.35,0-2.72.09-4.1.16l4.95-7C425.17,57.22,426.67,57.15,428.13,57.1ZM519.77,136c-.39,1.35-.82,2.71-1.27,4.06l-15.13.9c.44-1.23.85-2.47,1.23-3.69ZM419.2,57.62l-4.6,6.91c-1.35.1-2.75.22-4.15.35L414.69,58C416.2,57.87,417.72,57.73,419.2,57.62ZM517,144.18c-.55,1.39-1.14,2.79-1.75,4.18l-15,.11c.58-1.25,1.14-2.52,1.66-3.78ZM410.15,58.53l-3.89,6.79c-1.4.17-2.81.34-4.21.54l3.54-6.73C407.1,58.91,408.63,58.71,410.15,58.53Zm103.09,94c-.7,1.41-1.46,2.84-2.23,4.25l-14.7-.69c.73-1.27,1.43-2.57,2.09-3.84ZM401,59.82l-3.19,6.66c-1.41.22-2.84.45-4.25.7l2.84-6.58C397.94,60.33,399.48,60.07,401,59.82ZM508.52,161.11c-.85,1.41-1.77,2.86-2.71,4.3l-14.33-1.52c.88-1.3,1.73-2.61,2.52-3.89ZM391.8,61.48,389.31,68c-1.41.28-2.84.57-4.27.88l2.15-6.4C388.73,62.11,390.29,61.78,391.8,61.48ZM502.85,169.73c-1,1.43-2.1,2.89-3.2,4.33l-13.83-2.38c1-1.3,2-2.61,2.94-3.9Zm-6.63,8.66c-1.2,1.45-2.43,2.91-3.67,4.32l-13.22-3.25c1.13-1.27,2.25-2.58,3.34-3.88ZM382.57,63.5l-1.81,6.31c-1.41.33-2.85.68-4.28,1l1.46-6.21C379.48,64.25,381,63.86,382.57,63.5ZM488.67,187c-1.34,1.43-2.72,2.87-4.12,4.27L472,187.16c1.27-1.26,2.52-2.55,3.74-3.84ZM373.32,65.87,372.2,72c-1.42.38-2.86.79-4.28,1.2l.78-6C370.23,66.73,371.78,66.29,373.32,65.87ZM480.24,195.51c-1.49,1.42-3,2.83-4.56,4.21l-11.68-5c1.38-1.24,2.77-2.5,4.11-3.77ZM364.09,68.58l-.44,5.88c-1.4.43-2.84.89-4.26,1.36l.1-5.77C361,69.55,362.57,69.05,364.09,68.58ZM470.94,203.87c-1.61,1.36-3.27,2.74-4.94,4.09l-10.78-5.84c1.52-1.21,3-2.44,4.47-3.66Zm-116-132.26.23,5.64c-1.39.48-2.81,1-4.22,1.51l-.56-5.52C351.88,72.68,353.41,72.14,354.91,71.61ZM460.87,212c-1.72,1.31-3.5,2.64-5.31,3.94l-9.76-6.65c1.63-1.17,3.24-2.36,4.79-3.54Zm-115-137,.89,5.38c-1.38.53-2.79,1.09-4.17,1.65l-1.22-5.25C342.82,76.13,344.34,75.52,345.83,75ZM450.09,219.76c-1.84,1.25-3.73,2.51-5.63,3.75l-8.66-7.44c1.71-1.11,3.41-2.24,5.07-3.37ZM336.85,78.59l1.55,5.1c-1.38.58-2.77,1.19-4.13,1.79l-1.86-5C333.87,79.86,335.37,79.22,336.85,78.59ZM438.69,227.15c-1.92,1.18-3.9,2.37-5.89,3.54l-7.52-8.17c1.8-1.05,3.59-2.12,5.32-3.18ZM328,82.51l2.18,4.81c-1.35.63-2.71,1.27-4.06,1.92l-2.49-4.67C325.08,83.87,326.55,83.18,328,82.51ZM426.78,234.1c-2,1.12-4.09,2.22-6.13,3.29l-6.3-8.85c1.84-1,3.7-1.95,5.51-2.95ZM319.3,86.7l2.79,4.52c-1.31.66-2.65,1.34-4,2l-.21.11L314.81,89l.2-.11Zm89.45,144.69,5.69,9.15c-2.08,1-4.2,2-6.31,3l-5.05-9.46C405,233.23,406.89,232.31,408.75,231.39ZM314,95.46c-1.29.7-2.6,1.43-3.9,2.16l-3.7-4c1.39-.79,2.8-1.57,4.19-2.33ZM397.35,236.7l4.42,9.74c-2.15.94-4.31,1.85-6.44,2.73l-3.75-10C393.49,238.38,395.43,237.55,397.35,236.7ZM306.23,99.83c-1.28.75-2.56,1.51-3.8,2.27l-4.3-3.69c1.33-.81,2.71-1.63,4.09-2.44Zm79.53,141.65,3.11,10.25c-2.16.83-4.35,1.64-6.5,2.41l-2.45-10.48C381.86,243,383.82,242.23,385.76,241.48ZM298.7,104.42c-1.24.78-2.48,1.58-3.69,2.38l-4.89-3.34c1.3-.85,2.64-1.71,4-2.55Zm75.37,141.27,1.78,10.69c-2.17.72-4.37,1.41-6.52,2.07l-1.13-10.88C370.14,247,372.11,246.34,374.07,245.69ZM291.39,109.22c-1.19.81-2.39,1.64-3.56,2.48l-5.47-3c1.27-.89,2.56-1.79,3.85-2.66Zm71,140.08.47,11c-2.17.6-4.36,1.18-6.5,1.72l.18-11.19C358.43,250.38,360.4,249.85,362.35,249.3Zm-78-135.08c-1.14.84-2.29,1.7-3.42,2.57l-6-2.56c1.22-.93,2.47-1.87,3.71-2.77Zm66.35,138.07-.83,11.31c-2.13.48-4.28.94-6.41,1.36l1.46-11.42C346.82,253.15,348.76,252.73,350.68,252.29ZM277.55,119.41c-1.09.87-2.19,1.76-3.27,2.65l-6.57-2.16c1.16-1,2.35-1.92,3.54-2.85Zm61.63,135.23-2.09,11.5c-2.08.36-4.19.69-6.26,1l2.69-11.56C335.4,255.28,337.3,255,339.18,254.64ZM271.09,124.75c-1,.9-2.09,1.82-3.11,2.73l-7.12-1.74c1.11-1,2.25-2,3.38-2.94Zm56.85,131.59-3.3,11.6c-2,.24-4.07.45-6.07.63L322.44,257C324.25,256.77,326.1,256.57,327.94,256.34Zm-63-126.09c-1,.93-2,1.87-2.95,2.81l-7.63-1.3c1-1,2.13-2,3.21-3ZM317,257.4,312.59,269c-2,.12-3.93.21-5.85.27l5-11.6C313.47,257.62,315.26,257.52,317,257.4ZM259.13,135.9c-.94.95-1.87,1.92-2.77,2.88l-8.13-.86c1-1,2-2.08,3-3.1Zm47.41,121.92L301,269.39c-1.89,0-3.77,0-5.59-.08l6-11.5C303.12,257.84,304.83,257.84,306.54,257.82ZM253.68,141.68c-.87,1-1.74,2-2.58,2.94l-8.6-.4c.91-1.06,1.86-2.12,2.81-3.17Zm42.83,116L290,269.06c-1.76-.11-3.54-.25-5.29-.41l7-11.34C293.29,257.44,294.91,257.55,296.51,257.63Zm-47.9-110c-.79,1-1.6,2-2.37,3l-9.06.08c.85-1.09,1.73-2.17,2.6-3.23ZM287,256.83l-7.44,11.24c-1.67-.22-3.33-.47-5-.74l7.87-11.11C284,256.45,285.49,256.66,287,256.83ZM244,153.56c-.73,1-1.46,2-2.16,3l-9.5.57c.78-1.1,1.58-2.2,2.38-3.28Zm34.14,101.9-8.29,11c-1.55-.33-3.11-.68-4.61-1.05l8.67-10.82C275.25,254.89,276.67,255.19,278.1,255.46Zm-38.35-95.83c-.66,1-1.31,2-1.94,3.06l-9.9,1.07c.69-1.1,1.41-2.22,2.13-3.31Zm30.05,93.9-9,10.65c-1.44-.42-2.86-.87-4.25-1.34l9.38-10.47C267.17,252.78,268.48,253.17,269.8,253.53ZM236,165.76c-.58,1-1.15,2-1.7,3.07L224,170.42c.61-1.11,1.24-2.24,1.88-3.34Zm26.16,85.33-9.69,10.27c-1.31-.51-2.61-1.06-3.86-1.62l10-10.06C259.76,250.17,261,250.64,262.16,251.09Zm-29.42-79.17c-.5,1-1,2.06-1.44,3.09l-10.65,2.12c.51-1.12,1.06-2.25,1.61-3.36Zm22.48,76.23L244.94,258c-1.18-.6-2.34-1.23-3.46-1.87L252,246.5C253,247.07,254.12,247.62,255.22,248.15ZM230,178.09c-.42,1-.81,2.07-1.17,3.09l-11,2.67c.42-1.11.86-2.24,1.33-3.36Zm19,66.66-10.76,9.39c-1-.67-2.07-1.38-3.06-2.1l11-9.15C247.05,243.53,248,244.16,249,244.75ZM227.8,184.26c-.32,1-.62,2.06-.88,3.07l-11.26,3.24c.31-1.11.65-2.23,1-3.35Zm15.65,56.67-11.17,8.89c-.91-.75-1.81-1.53-2.67-2.32L241,238.86C241.76,239.57,242.6,240.26,243.45,240.93Zm-17.27-50.54c-.22,1-.41,2-.58,3.05l-11.51,3.81c.2-1.11.44-2.23.7-3.34Zm12.46,46.32-11.49,8.37c-.78-.81-1.53-1.66-2.25-2.51l11.61-8.11C237.19,235.23,237.91,236,238.64,236.71Zm-13.47-40.26c-.12,1-.21,2-.28,3l-11.71,4.39c.1-1.08.22-2.19.37-3.28Zm9.4,35.69L222.84,240c-.64-.87-1.27-1.77-1.85-2.68l11.81-7.55C233.36,230.55,234,231.36,234.57,232.14Zm-9.79-29.73c0,1,0,2,0,2.93l-11.86,5c0-1.06,0-2.15,0-3.23Zm6.44,24.84-11.89,7.27c-.51-.93-1-1.88-1.45-2.83l11.94-7C230.26,225.56,230.73,226.42,231.22,227.25Zm-6.19-19c.1.95.22,1.92.38,2.86l-12,5.55c-.14-1-.25-2.1-.33-3.15Zm3.56,13.85-12,6.7c-.38-1-.74-2-1.07-3l12-6.41C227.86,220.32,228.22,221.22,228.59,222.09ZM226,213.92c.21.93.44,1.86.71,2.77l-12,6.13c-.26-1-.49-2-.7-3.06Z"/><path class="cls-19" d="M490.16,86.74a47.17,47.17,0,0,1,7,8.8l-14.67,5.71a40.63,40.63,0,0,0-5.95-8Zm-9.06-7.26-12.47,7.11a60,60,0,0,0-9.56-5.27l11.16-7.54A70.17,70.17,0,0,1,481.1,79.48Zm20.55,26.35a46.65,46.65,0,0,1,1.83,11.64l-16,3.52a42.49,42.49,0,0,0-1.32-10.45ZM457.81,69.66l-9.72,7.8A99.53,99.53,0,0,0,435.9,75l8.24-7.91A113,113,0,0,1,457.81,69.66Zm44.57,60.61A74.7,74.7,0,0,1,498.23,144l-15.94.64a69.26,69.26,0,0,0,4-12.21ZM429.51,66l-6.73,7.89c-4.47-.14-9.13-.06-13.83.22l5.21-7.75C419.38,66,424.54,65.91,429.51,66ZM491,158.34A132.24,132.24,0,0,1,480.58,173l-14.35-2.73a119.83,119.83,0,0,0,9.37-12.9ZM398.33,68.1l-3.7,7.5c-4.8.68-9.72,1.58-14.6,2.65l2.2-7.14C387.62,69.9,393,68.89,398.33,68.1Zm68.91,119.38a201.43,201.43,0,0,1-16.05,14l-11.09-6.19c5.06-3.95,9.85-8.09,14.23-12.28ZM366.06,75.33l-.72,6.7c-4.87,1.43-9.78,3.06-14.61,4.83L350,80.68C355.3,78.72,360.71,76.92,366.06,75.33Zm66.77,139.18c-6.41,4.11-13.19,8-20.14,11.67L406.14,217c6.12-3.2,12.1-6.66,17.75-10.27ZM334.24,87.09l2.15,5.59c-4.68,2.07-9.37,4.33-13.93,6.71l-.21.11-3.49-4.93.21-.11C324,91.86,329.11,89.38,334.24,87.09Zm53.11,138.72,4,10.36c-7.22,3-14.6,5.71-21.93,8l-1.36-11.27C374.5,230.86,381,228.47,387.35,225.81ZM308.92,107c-4.33,2.63-8.57,5.41-12.6,8.26l-6.09-3.39c4.45-3.12,9.11-6.17,13.87-9.06Zm39.86,131.12L347.52,250c-7.16,1.55-14.3,2.73-21.21,3.52l3.74-12.17C336.16,240.62,342.46,239.54,348.78,238.14Zm-64.16-114c-3.73,3-7.3,6.23-10.64,9.44L265.55,132c3.7-3.53,7.66-7,11.77-10.37Zm27.72,118.41-6,12.15a146.11,146.11,0,0,1-18.23-1l8-11.85A133.78,133.78,0,0,0,312.34,242.59Zm-47.8-99.08c-2.93,3.37-5.65,6.81-8.08,10.23l-10.44.42c2.73-3.77,5.77-7.56,9-11.26Zm17,95.78L272,250.59a85,85,0,0,1-13.79-5l11-10.54A79.74,79.74,0,0,0,281.59,239.29Zm-31.7-75.12a86.2,86.2,0,0,0-4.88,10.5l-12,2.66a97.92,97.92,0,0,1,5.6-11.64Zm9,65.07-12,9.62a50.8,50.8,0,0,1-8.61-8.16L251,222.15A46.07,46.07,0,0,0,258.9,229.24ZM242,185.08a51.74,51.74,0,0,0-1,10.14L228,200.27a58.76,58.76,0,0,1,1.4-11.35Zm3.4,28.88-13,7.42A44.77,44.77,0,0,1,229,211.16l13.09-6.25A40.43,40.43,0,0,0,245.38,214Z"/><path class="cls-19" d="M596.62,36.06a107,107,0,0,1,17.27,14L586.25,60.88a89.52,89.52,0,0,0-14.47-13ZM576.4,25.16l-22,12.51a140.88,140.88,0,0,0-19.6-7.58l19-12.85A166.82,166.82,0,0,1,576.4,25.16Zm51,42.3a85.1,85.1,0,0,1,8.81,20.64l-32.37,7.14a74.84,74.84,0,0,0-6.65-18.57ZM529.6,12.12,513.48,25.06a218.82,218.82,0,0,0-22.69-2.65L504.1,9.62C512.82,10.05,521.4,10.89,529.6,12.12Zm109.89,99.73a113.73,113.73,0,0,1-3,26.54l-34.71,1.39a106.22,106.22,0,0,0,3.73-23.4ZM477.84,9.51,467.22,22c-7.89.2-16,.74-24.14,1.59l8.07-12C460.12,10.54,469.1,9.84,477.84,9.51ZM626.71,167.19a206.66,206.66,0,0,1-17.12,30.29l-33.19-6.31a190.32,190.32,0,0,0,15.78-26.24ZM424.31,15.61,418.68,27c-8.09,1.44-16.3,3.18-24.42,5.19l3.31-10.72C406.45,19.23,415.45,17.26,424.31,15.61Zm160.8,212.66a345.22,345.22,0,0,1-31.5,30.13l-26.75-14.93a314.1,314.1,0,0,0,27.65-25.81ZM371.1,29,370,39c-8,2.5-16,5.29-23.86,8.29l-1.08-9.1C353.65,34.89,362.4,31.81,371.1,29ZM516,286.56a471.12,471.12,0,0,1-42.29,25l-16-22.49a422.45,422.45,0,0,0,36.53-21.47ZM319.72,48.78,322.87,57c-7.59,3.42-15.2,7.11-22.61,11l-.34.18-5.11-7.21.33-.17C303.2,56.53,311.46,52.52,319.72,48.78ZM418.7,307l9.76,25.28A469,469,0,0,1,382,348.07l-3.28-27.2C392.05,317,405.52,312.34,418.7,307ZM278.18,80.29C271.1,84.54,264.13,89,257.46,93.6l-9-5c7.29-5,14.9-9.84,22.63-14.46Zm61,249.84-3,28.16A365.53,365.53,0,0,1,293,362.86l8.64-28.16A333.76,333.76,0,0,0,339.22,330.13ZM237.94,108c-6.28,5-12.38,10.1-18.13,15.31l-12.65-2.38c6.34-5.68,13.05-11.28,20-16.67Zm29.17,226.76L253.65,362a228.1,228.1,0,0,1-34.44-5.69l17.34-25.81A212.59,212.59,0,0,0,267.11,334.71ZM203.25,139.47c-5.26,5.56-10.23,11.27-14.77,17l-16.15.65c5.1-6.26,10.65-12.51,16.49-18.57Zm7.28,183.21-20.25,23.78a128.3,128.3,0,0,1-23.16-13.38l22.25-21.39A119.25,119.25,0,0,0,210.53,322.68ZM175.77,174.12a182.16,182.16,0,0,0-10.35,18.17L146,196.58A210.32,210.32,0,0,1,158,176.51Zm-2.64,124-23.42,18.8a87.1,87.1,0,0,1-11.86-18.19l23.85-16.14A77.81,77.81,0,0,0,173.13,298.14Zm-15.35-87.36a117.28,117.28,0,0,0-4.55,18.59L131.15,238a136.63,136.63,0,0,1,5.8-20.84Zm-2.95,54.87-23.69,13.51a97,97,0,0,1-2.07-20.39l23.06-11A83,83,0,0,0,154.83,265.65Z"/><path class="cls-18" d="M555.64,46.5l-8.72,4.55a110.05,110.05,0,0,0-17.38-8.8l7.66-4.79A119.16,119.16,0,0,1,555.64,46.5Zm15.71,11.86A76.72,76.72,0,0,1,583.6,73.12l-10.68,3.62a72,72,0,0,0-11.31-14.21ZM516.57,31.15,510,36.05a178.88,178.88,0,0,0-21.2-3.72l5.46-4.9A191.14,191.14,0,0,1,516.57,31.15Zm75.07,59.64a77.52,77.52,0,0,1,3.11,20.39l-12,1.95a73.62,73.62,0,0,0-2.55-19.46ZM470.85,26.12,466.45,31c-7.52-.1-15.31.16-23.16.76L446.66,27C454.85,26.38,463,26.07,470.85,26.12ZM592.31,134a127.33,127.33,0,0,1-8.45,24.71l-12.19-.48A124.33,124.33,0,0,0,580,134.8ZM422.07,30l-2.39,4.46c-7.85,1.22-15.84,2.77-23.77,4.59l1.45-4.22C405.6,32.91,413.91,31.28,422.07,30Zm147,154.66A234.11,234.11,0,0,1,548,211l-10.74-3.47a225.07,225.07,0,0,0,20.11-24.81ZM372.77,41.41l-.54,3.91c-7.8,2.36-15.66,5-23.36,7.88l-.35-3.58C356.52,46.62,364.67,43.86,372.77,41.41ZM521,236.73a357.29,357.29,0,0,1-32.21,24l-7.57-6.46a341.91,341.91,0,0,0,30.42-22.6ZM324.84,59.33,326,62.54c-7.44,3.32-14.88,6.92-22.13,10.7l-.35.18-2-2.82.31-.17C309.41,66.5,317.12,62.77,324.84,59.33ZM447.11,274.41l5.48,7.73-.28.14a417.37,417.37,0,0,1-38.44,17.65l-3.25-8.71c12.25-4.92,24.44-10.52,36.21-16.66Zm-164.79-189c-6.9,4.18-13.68,8.59-20.15,13.11l-3.57-1.9c6.73-4.69,13.76-9.25,20.93-13.58Zm90.9,218.7.93,9.41A364.7,364.7,0,0,1,335,322.3l1.32-9.77A351.43,351.43,0,0,0,373.22,304.06ZM243.3,112.65c-6.05,4.89-11.88,10-17.36,15.13l-5-.83c5.71-5.34,11.79-10.62,18.08-15.69Zm58,203.86L298,326.3a251.68,251.68,0,0,1-33.74-.63l5.07-9.51A244.08,244.08,0,0,0,301.3,316.51Zm-91-172.74c-4.92,5.48-9.52,11.1-13.67,16.72l-6.4.43c4.36-5.84,9.18-11.68,14.33-17.37Zm30.83,168-6.48,9a142.24,142.24,0,0,1-24.79-8.58l7.52-8.26A138.66,138.66,0,0,0,241.14,311.82Zm-55.91-134a150,150,0,0,0-8.81,17.69l-7.6,1.91a160.56,160.56,0,0,1,9.39-18.46Zm13.12,115.34-8.24,7.41a82.3,82.3,0,0,1-14.68-14.2l8.66-6.48A79.62,79.62,0,0,0,198.35,293.13Zm-27.78-79.8A93,93,0,0,0,168.08,231l-8.48,3.64a99.86,99.86,0,0,1,2.88-18.6Zm3.91,51.41-8.8,5.51a73.63,73.63,0,0,1-5.14-17.38l8.73-4.57A69.38,69.38,0,0,0,174.48,264.74Z"/></g></g><path class="cls-20" d="M558.22,271.44a3.82,3.82,0,0,1-5,.19,3,3,0,0,1-.21-4.58,3.83,3.83,0,0,1,5.08-.2A3,3,0,0,1,558.22,271.44Z"/><polygon class="cls-21" points="555.83 268.96 557.92 268.02 555.9 269.01 558.75 269.46 555.89 269.14 558.75 270.76 555.87 269.26 557.92 271.58 555.85 269.29 556.49 271.71 555.79 269.28 554.83 271.11 555.71 269.19 553.36 270.45 555.59 269.16 552.76 269.19 555.53 269.07 552.51 267.19 555.37 268.93 553.34 266.35 555.6 268.97 554.79 266.22 555.72 268.94 556.91 267.04 555.83 268.96"/><path class="cls-22" d="M557.81,271.88a3.83,3.83,0,0,1-5,.19,3,3,0,0,1-.2-4.58,3.83,3.83,0,0,1,5.08-.2A3,3,0,0,1,557.81,271.88Z"/><polygon class="cls-23" points="555.41 269.4 557.51 268.46 555.49 269.45 558.34 269.9 555.48 269.58 558.33 271.2 555.45 269.7 557.5 272.02 555.44 269.73 556.07 272.15 555.38 269.72 554.41 271.55 555.29 269.63 552.95 270.89 555.18 269.6 552.35 269.63 555.12 269.51 552.1 267.63 554.96 269.37 552.92 266.79 555.19 269.41 554.38 266.66 555.31 269.38 556.5 267.48 555.41 269.4"/><path class="cls-24" d="M347.73,154.33c2.32-.74,159.68-106.68,159.68-106.68L359.31,169.12l-2.61-8.31-7.55-3.56Z"/><ellipse class="cls-25" cx="352.24" cy="163.31" rx="13.92" ry="10.15" transform="translate(-3.99 8.91) rotate(-1.44)"/><ellipse class="cls-26" cx="352.47" cy="163.03" rx="5.89" ry="4.29" transform="translate(-3.99 8.91) rotate(-1.44)"/><path class="cls-27" d="M0,211.56l36.43,28.69C46.49,234,59.82,226.79,75,218.85A288.11,288.11,0,0,0,44.19,195,464.57,464.57,0,0,0,0,211.56Z"/><path class="cls-27" d="M13.54,174.21,44.19,195a483.91,483.91,0,0,1,50.36-15.71c-7.78-4.9-17.18-11-30.13-19.95-13,2.57-29.88,7.66-50.88,14.84Z"/><path class="cls-27" d="M75,218.85A365.61,365.61,0,0,1,103.15,244c14.86-8.48,28.63-15.6,41.65-21.77a293.06,293.06,0,0,0-25.07-22.76A441,441,0,0,0,75,218.85Z"/><path class="cls-27" d="M103.15,244a185.37,185.37,0,0,1,30.14,32.13Q114.48,290.58,101.22,302q-16.56-18-35-35.57c11.78-7.82,23.92-15.79,37-22.42Z"/><path class="cls-27" d="M144.8,222.2A123,123,0,0,1,172,249.35a422.76,422.76,0,0,1,41-23.95c-7.29-7.36-15.51-14.87-24.15-22.46a377.16,377.16,0,0,0-44,19.26Z"/><path class="cls-27" d="M119.73,199.43Q141.83,192,166.44,184c-5.05-4.74-11.85-10.1-22.49-16.84-14.06,3.15-30.71,7.21-49.4,12.12,9.1,6.15,18.18,12.32,25.18,20.11Z"/><path class="cls-27" d="M144,167.2q-13.94-9.75-29.44-18.53c19.12-4.14,37.3-7,53.63-7.18,10.35,6.23,19.7,12,26.87,16.62-14,1.35-30.71,4.3-51.06,9.09Z"/><path class="cls-27" d="M166.44,184A378.29,378.29,0,0,1,214,172.52l17.37,15.27c-12.77,3.86-27.2,9-42.56,15.15L166.44,184Z"/><path class="cls-27" d="M195,158.11c12.94-1.94,25.7-3.64,37.88-4.5,4.13,3.21,8.88,7.2,15,12.87l-33.83,6a89.53,89.53,0,0,0-19-14.41Z"/><path class="cls-27" d="M232.89,153.61,213,138.79c19.11-1.21,32.83-1.09,41.85.07L270.67,151c-11,.2-23.37,1-37.78,2.6Z"/><path class="cls-27" d="M247.85,166.48c12.35-1.76,24.28-3.44,35.53-4.66l10.24,9.43q-15.12,3.45-32.7,7.89l-13.07-12.66Z"/><path class="cls-27" d="M293.62,171.25c9.83-2.31,19.12-4.23,27.24-5.28l10,10q-10.72,3.83-24.26,8.19l-13-12.89Z"/><path class="cls-27" d="M283.38,161.82,270.68,151c11.93-.43,23-.86,32.17-.74l10.51,8.82-30,2.73Z"/><path class="cls-27" d="M313.36,159.09l7.5,6.88,22.32-3.49-5.64-4.87c-6.42.17-14,.57-24.18,1.48Z"/><path class="cls-27" d="M302.85,150.27l-11.15-8.36a254.12,254.12,0,0,1,25.85,1.39l11,7.35-25.69-.38Z"/><polygon class="cls-27" points="328.54 150.65 339.86 159.55 359.96 156.79 352.44 151.76 328.54 150.65 328.54 150.65"/><path class="cls-27" d="M231.4,187.79l19,19.11a167.47,167.47,0,0,1,25.71-11.1l-15.21-16.66c-8.6,2.21-18.27,5-29.51,8.65Z"/><path class="cls-28" d="M589.79,284h.78a223.47,223.47,0,0,0,26.91-1.54c2.13-.28,4.27-.62,6.38-1,.65-.13,1.27-.28,1.88-.43l1.25-.3c1-.23,2-.47,3-.73.74-.21,1.45-.44,2.16-.68l.9-.29c1-.31,1.93-.62,2.93-1,.66-.25,1.29-.52,1.92-.79l1-.42c.78-.31,1.55-.63,2.28-1l.46-.22h0l.22-.11c.95-.47,1.88-1,2.76-1.46.54-.3,1.07-.61,1.6-.93l1.13-.7c.72-.46,1.43-.93,2.09-1.39s1.36-1,2.14-1.57l1.08-.86.71-.57c.62-.51,1.21-1,1.91-1.65.36-.32.71-.66,1.06-1l1-.92c.54-.55,1.08-1.09,1.57-1.62s1.26-1.38,1.93-2.14l.46-.55c.52-.62,1-1.25,1.55-1.9l.37-.5c.55-.71,1.1-1.44,1.65-2.2l3.07-4.42.89-1.62c.81-1.33,1.62-2.71,2.41-4.15l.57-1q.78-1.45,1.53-2.94l.57-1.11q1-2,1.95-4.09L689.65,200l1.92-5.71c0-.41.66-4.45.67-4.84a32.79,32.79,0,0,0-.4-6.89,18.35,18.35,0,0,0-.57-2.43c-.19-.79-.42-1.67-.74-2.62l-.93-2.3L688.53,173a32.82,32.82,0,0,0-2.32-3.7c-.41-.56-.85-1.11-1.31-1.65a2.11,2.11,0,0,1-.19-.23c-.42-.52-1-1.18-1.7-1.93a39.16,39.16,0,0,0-3.44-3.12c-.37-.29-.73-.57-1.1-.84l-.24-.18c-.56-.41-1.13-.81-1.72-1.2l-.48-.31c-.91-.57-1.85-1.12-3-1.74-.55-.29-1.12-.57-1.73-.84l-.34-.16-1.34-.61c-1-.42-2.08-.83-3.41-1.29-.69-.23-1.43-.45-2.17-.66l-.19-.05-.73-.22-.43-.11c-1.26-.33-2.54-.62-3.82-.86-.59-.12-1.22-.22-1.85-.31l-1.21-.19c-.34-.06-.69-.12-1.16-.18-1.49-.19-3-.34-4.66-.45l-1-.07c-1.65-.09-3.39-.14-5.36-.16l-2.58,0c-2,0-4,.07-6.19.18l-.52,0-1.42.09-.33,0c-1.84.12-3.72.25-5.68.43l-5.74.56c-1.26.14-3.47.32-4.77.48L128.22,215.94,122,285.68Z"/><path class="cls-29" d="M575.68,261.2h.78a223.31,223.31,0,0,0,26.91-1.55c2.13-.27,4.27-.62,6.38-1,.65-.12,1.27-.27,1.89-.43l1.24-.29c1-.23,2-.47,3-.74.73-.2,1.44-.43,2.15-.67l.9-.3c1-.3,1.93-.61,2.93-1,.66-.25,1.29-.52,1.92-.79l1-.42c.78-.32,1.55-.64,2.29-1l.46-.23h0l.21-.1c.95-.47,1.89-1,2.76-1.46.54-.3,1.07-.61,1.6-.93l1.13-.7c.72-.46,1.44-.94,2.1-1.4s1.36-1,2.14-1.56l1.07-.86.71-.57c.62-.51,1.21-1,1.91-1.65l1.07-1,.95-.92c.55-.54,1.08-1.09,1.57-1.61.64-.68,1.27-1.38,1.93-2.15l.46-.55c.52-.61,1-1.24,1.55-1.9.14-.18.28-.36.37-.49.55-.71,1.1-1.44,1.65-2.2l3.08-4.42.88-1.62c.81-1.33,1.62-2.72,2.41-4.16l.57-1q.78-1.45,1.53-2.94l.57-1.12c.66-1.33,1.31-2.68,2-4.09l13.86-36.07,1.91-5.71c0-.4.66-4.45.67-4.84a32.08,32.08,0,0,0-.4-6.88,17.06,17.06,0,0,0-.57-2.44c-.19-.78-.42-1.66-.74-2.61l-.92-2.3-1.07-2.29a33.47,33.47,0,0,0-2.33-3.7,20.15,20.15,0,0,0-1.31-1.65l-.19-.23a25,25,0,0,0-1.7-1.93,37.65,37.65,0,0,0-3.44-3.12c-.36-.29-.73-.57-1.1-.85l-.24-.18c-.56-.4-1.13-.8-1.72-1.19l-.48-.31c-.9-.57-1.84-1.12-3-1.75-.54-.28-1.12-.56-1.73-.84l-.34-.15-1.33-.61c-1-.43-2.09-.83-3.41-1.29-.7-.23-1.44-.45-2.18-.66l-.18-.05-.74-.22-.43-.12c-1.25-.32-2.54-.62-3.82-.86-.59-.11-1.22-.21-1.84-.3l-1.21-.2-1.17-.17c-1.48-.19-3-.34-4.66-.45l-1-.07c-1.65-.09-3.39-.14-5.35-.16l-2.59,0c-2,0-4,.07-6.19.18l-.52,0-1.41.09-.34,0c-1.84.11-3.71.25-5.67.42l-5.75.56c-1.26.15-3.46.32-4.77.49L114.11,193.18l-7.52,71.24Z"/><path d="M658.33,162.7a17.62,17.62,0,0,0-.53-2.32c-.18-.75-.41-1.59-.71-2.49l-.88-2.19-1-2.18A32,32,0,0,0,653,150c-.4-.53-.82-1.05-1.27-1.56l-.18-.22c-.41-.5-.94-1.13-1.64-1.84a36.09,36.09,0,0,0-3.31-3l-1.06-.8-.23-.17c-.55-.39-1.09-.77-1.66-1.14l-.47-.29c-.87-.55-1.78-1.07-2.92-1.67-.52-.27-1.08-.53-1.67-.79l-.33-.15-1.29-.58c-1-.41-2-.79-3.29-1.22-.67-.22-1.39-.43-2.1-.63l-.19-.05-.71-.21-.41-.11c-1.21-.31-2.46-.58-3.69-.81-.58-.11-1.18-.2-1.79-.29l-1.17-.19-1.13-.16c-1.44-.18-2.94-.32-4.51-.42l-1-.07c-1.6-.08-3.28-.13-5.18-.15l-2.5,0c-1.94,0-3.91.07-6,.18l-.5,0-1.37.09-.33,0c-1.78.11-3.6.24-5.49.41l-5.57.54c-1.22.14-3.36.31-4.62.47l-343.68,43.5h-.05l-43,4.76-9.93,1.07-32,2.57-41.81,2.08-15.18.69-4.35.19L83.21,248.2l24.14,0-1.27,13.36,453-2.2h.76a218.32,218.32,0,0,0,26.07-1.51c2.06-.26,4.13-.59,6.18-1,.63-.13,1.23-.27,1.83-.42l1.2-.28c1-.22,2-.45,2.91-.7.71-.2,1.4-.42,2.09-.65l.87-.28c.94-.29,1.87-.59,2.85-.94.63-.24,1.25-.5,1.85-.76l1-.4c.75-.3,1.5-.6,2.21-.94l.45-.21.21-.1c.92-.45,1.83-.92,2.68-1.39l1.55-.89,1.1-.67c.7-.44,1.39-.89,2-1.33s1.33-.93,2.09-1.5l1-.82c.25-.19.5-.38.69-.54.6-.49,1.18-1,1.85-1.58.35-.31.7-.62,1-.94l.93-.88c.53-.52,1-1,1.53-1.54s1.23-1.32,1.88-2l.45-.52c.5-.59,1-1.19,1.5-1.82.14-.17.27-.34.36-.47.54-.67,1.08-1.37,1.61-2.09l3-4.22.87-1.54c.79-1.27,1.57-2.6,2.35-4l.56-1c.5-.92,1-1.85,1.49-2.79l.56-1.07c.64-1.27,1.28-2.56,1.91-3.9l13.58-34.38,1.88-5.45c0-.38.66-4.24.67-4.61A29.74,29.74,0,0,0,658.33,162.7Z"/><path class="cls-17" d="M490,268.16H478.67a32.21,32.21,0,0,0-5.68.47l0-.18-42.59,0-.35,1.72a15.43,15.43,0,0,0-7.53-1.72l-28,0-.62,3.1c-3.65-3-8.4-3.39-12.27-3.38h-13c-4.68,0-9.95.66-13.64,4.4-4-4.09-9.53-4.09-11.39-4.09l-25.65,0-.62,3.13c-3.46-3-8.19-3.41-12-3.41H294c-7.12,0-11,1.71-13.31,4.22-2.44-2.59-5.91-3.92-10.35-3.91l-28,0-.62,3.1c-3.65-3-8.39-3.39-12.27-3.38h-13a29.36,29.36,0,0,0-6.56.64l.07-.35-42.59,0-.39,1.94c-3.35-1.92-7.27-2.23-10.57-2.22h-13a25.74,25.74,0,0,0-8.61,1.24l.19-.95-22.87,0-7.7,10.39-3.57-10.38-20.78,0-7.41,37.15,19.61,0,.87-4.34,1.58,4.34h13l.39-.51-.1.51h19.61l.62-3.11a14.5,14.5,0,0,0,6.14,2.83,28.57,28.57,0,0,0,6.12.56h13c7.08,0,15.5-1.47,17.76-12.84l1.43-7.18h2.6l-3.93,19.71,19.83,0,3.93-19.71h2.6l-.58,2.92c-.37,1.86-1.5,7.54,2.59,12.21a13.69,13.69,0,0,0,7.68,4.3,28.57,28.57,0,0,0,6.12.56h13a25.75,25.75,0,0,0,8.61-1.25l-.19.95,19.83,0,1.36-6.81h4.32l-1.36,6.81,19.83,0,.47-2.34a13.41,13.41,0,0,0,4.9,2.08,31,31,0,0,0,6.42.55h9.82a41.65,41.65,0,0,0,10.18-.92l-.12.62,19.82,0,1.32-6.59h12.51a13.67,13.67,0,0,0,5.7-1.18,11.89,11.89,0,0,0,2,3.19,13.7,13.7,0,0,0,7.67,4.3,28.71,28.71,0,0,0,6.13.56h13a25.75,25.75,0,0,0,8.61-1.25l-.19.95,19.83,0,1.36-6.81h4.32l-1.36,6.81,19.83,0,1.55-7.78a12,12,0,0,0-.16-6.08,12.61,12.61,0,0,0,2.64-5.85h3.19l-3.93,19.71,19.83,0,3.93-19.71h3.57a1.52,1.52,0,0,1,0,.21h-.93l-1,5.14c-.31,1.54-1.25,6.24,2.27,10.26a12.21,12.21,0,0,0,6.86,3.83,30.32,30.32,0,0,0,6.42.55h9.82c11.8,0,17.06-1.62,19-11.56a16,16,0,0,0,.21-6.68l.86-4.16c.44-2.21,1.35-6.81-2.17-10.83S494.27,268.16,490,268.16ZM377.89,285.9l-.1.49a7.46,7.46,0,0,1-.53,1.87,5.7,5.7,0,0,1-.91.06h-6.84l.1-.49c.38-1.93.44-1.93,1.88-1.93Zm-152.2.13-.1.48a7.63,7.63,0,0,1-.53,1.87,4.65,4.65,0,0,1-.91.06h-6.84l.1-.49c.38-1.93.44-1.93,1.88-1.93Zm-73,.05-.09.49a7.39,7.39,0,0,1-.54,1.87,5.7,5.7,0,0,1-.91.06h-6.84l.1-.49c.38-1.93.44-1.93,1.88-1.93Z"/><path class="cls-17" d="M687.17,268.29l-31,0-5,4,.8-4-19.83,0-.58,2.89a14.11,14.11,0,0,0-9.23-2.88l-28,0L591,284.81l-5.83-16.44h-8.43l-.24-.7-.5.7h-8.36l-7,9.36a11.5,11.5,0,0,0-2.51-4.75c-4-4.6-9.94-4.6-11.88-4.6l-25.64,0-7.41,37.15,19.83,0L534.4,299h10.52l-4.91,6.6,24.19,0,3.3-4.64h9.31l1.6,4.64,17.17,0h11.15l1.36-6.81h4.32l-1.36,6.81h33.5l1.54-7.74,7.43,7.74,25.23,0L661.36,288Z"/><path class="cls-24" d="M84.9,274.23H97.34l5.79,16.88,12.52-16.89h12.44l-5.23,26.23H115l3.76-18.85h-.08l-14.37,18.86H98.23l-6.86-18.83H91.3l-3.75,18.84H79.67Z"/><path class="cls-24" d="M131.13,283.4c1.53-7.68,6.23-9.5,13.53-9.51h13c7.29,0,11.27,1.81,9.74,9.49l-1.56,7.82c-1.53,7.69-6.23,9.5-13.53,9.51h-13c-7.3,0-11.28-1.8-9.75-9.49Zm7.26,5.32c-.76,3.8-.25,5.25,3.58,5.25h10.36c3.83,0,4.93-1.45,5.68-5.26l.57-2.83c.65-3.26.24-5.25-4-5.25h-9.48c-4.27,0-5.47,2-6.12,5.26Z"/><path class="cls-24" d="M172.17,274.16l30.87,0-1.3,6.52H190.35l-3.93,19.71h-8.09l3.93-19.71H170.87Z"/><path class="cls-24" d="M204.15,283.34c1.53-7.68,6.23-9.5,13.53-9.5h13c7.29,0,11.27,1.8,9.74,9.48l-1.56,7.83c-1.53,7.68-6.23,9.49-13.53,9.5h-13c-7.29,0-11.27-1.8-9.74-9.48Zm7.25,5.32c-.75,3.8-.24,5.25,3.59,5.25h10.36c3.83,0,4.92-1.45,5.68-5.26l.56-2.82c.65-3.26.25-5.26-4-5.25h-9.48c-4.27,0-5.47,2-6.12,5.26Z"/><path class="cls-24" d="M247.12,274.1l24.45,0c6.24,0,7.3,3.08,6.36,7.79l-.33,1.66c-.7,3.52-1.92,5.58-5.81,6.46l0,.07c2.33.43,4.12,1.48,3.26,5.79l-.89,4.46h-8.09l.63-3.15c.54-2.76-.08-3.66-2.6-3.66H251.35L250,300.33H241.9Zm5.53,12.9H266c2.19,0,3.17-.88,3.54-2.76l.17-.87c.47-2.32-.61-2.75-3.17-2.75H253.92Z"/><path class="cls-24" d="M281,291.72h8.09c-.52,2.79.57,3,2.91,3h9.92c1.71,0,3.5-.18,3.91-2.21.45-2.29-.47-2.43-10.9-2.42-12.19,0-13.29-1.44-12-7.89.95-4.75,2.11-8.41,12.33-8.42h11.31c9.34,0,9.58,3.14,8.67,7.74l-.17.84h-8.1c.38-1.92.32-2.72-3.4-2.71h-9c-1.83,0-3.19.62-3.47,2-.45,2.28.52,2.35,9.21,2.31,12.59-.05,15.36.71,13.83,8.35-1.41,7.07-4,8.23-14.81,8.24h-9.81c-7.37,0-10.05-1.37-8.92-7.06Z"/><path class="cls-24" d="M322.77,274l22.07,0c7.7,0,8.79,3.84,7.77,9l-.45,2.25c-.78,3.91-3.39,8.41-9.12,8.41l-16.09,0-1.31,6.59h-8.1Zm5.48,13.11h12.59a3.1,3.1,0,0,0,3.18-2.79l.2-1c.36-1.78-.32-2.79-2.76-2.79H329.57Z"/><path class="cls-24" d="M356.35,283.22c1.53-7.68,6.23-9.5,13.53-9.51h13c7.3,0,11.28,1.81,9.75,9.49L391.05,291c-1.53,7.68-6.23,9.49-13.53,9.5h-13c-7.29,0-11.27-1.8-9.74-9.49Zm7.25,5.32c-.75,3.8-.24,5.25,3.59,5.25h10.36c3.83,0,4.92-1.45,5.68-5.26l.56-2.83c.65-3.26.25-5.25-4-5.25h-9.48c-4.27,0-5.47,2-6.12,5.26Z"/><path class="cls-24" d="M399.32,274l24.45,0c6.23,0,7.3,3.07,6.36,7.78l-.33,1.67c-.7,3.52-1.92,5.58-5.81,6.46l0,.07c2.33.43,4.12,1.48,3.26,5.79l-.89,4.46h-8.09l.62-3.16c.55-2.75-.07-3.65-2.59-3.65H403.55l-1.36,6.81H394.1Zm5.53,12.89h13.39c2.19,0,3.16-.87,3.54-2.75l.17-.87c.47-2.32-.62-2.75-3.17-2.75H406.12Z"/><path class="cls-24" d="M435.21,274l30.86,0-1.3,6.52H453.39l-3.93,19.71h-8.09l3.92-19.71H433.91Z"/><path class="cls-24" d="M465.61,291.57h8.1c-.52,2.8.57,3,2.91,3h9.92c1.71,0,3.5-.18,3.91-2.21.45-2.28-.47-2.43-10.9-2.42-12.19,0-13.29-1.44-12-7.89.95-4.74,2.11-8.4,12.33-8.41h11.31c9.34,0,9.59,3.14,8.67,7.74l-.17.84h-8.1c.38-1.92.33-2.71-3.4-2.71h-9c-1.82,0-3.19.62-3.47,2-.45,2.28.52,2.35,9.21,2.31,12.59,0,15.36.71,13.83,8.36-1.41,7.06-4,8.23-14.81,8.23h-9.81c-7.37,0-10.05-1.37-8.92-7.06Z"/><path class="cls-24" d="M525.44,273.88l22.07,0c7.7,0,8.8,3.84,7.77,9l-.45,2.25c-.78,3.91-3.39,8.41-9.11,8.41H529.63l-1.32,6.6h-8.09ZM530.93,287h12.58a3.09,3.09,0,0,0,3.18-2.79l.21-1c.35-1.78-.32-2.79-2.76-2.79h-11.9Z"/><path class="cls-24" d="M571.15,273.84h10.54L591,300.06h-9l-1.59-4.64H564l-3.29,4.64h-9Zm-3,16h10.36l-3.29-9.85Z"/><path class="cls-24" d="M599.08,273.82l24.44,0c6.24,0,7.31,3.08,6.37,7.79l-.33,1.66c-.7,3.52-1.92,5.59-5.81,6.46l0,.07c2.32.43,4.12,1.48,3.26,5.79L626.1,300H618l.62-3.15c.55-2.76-.07-3.66-2.59-3.66H603.31L602,300.05h-8.1Zm5.53,12.9,13.39,0c2.19,0,3.16-.87,3.54-2.75l.17-.87c.47-2.32-.62-2.75-3.17-2.75H605.88Z"/><path class="cls-24" d="M636.9,273.79H645l-1.92,9.64h3.8L659,273.77h11L653.17,286.6,666.48,300H655l-9.66-10.07h-3.58l-2,10.07h-8.09Z"/><path d="M569.83,138.61l-474.47,52L83.21,248.67l457.1-68.48s58.47-22.44,59.1-24.36-12-17.24-12-17.24Z"/><path class="cls-30" d="M141.84,177.84l-5,22.53-21.08,1.52,4.59-21.75-19.78,2.08-13,64.55,19-.14,4.58-22.48,20.68-1-5,23.27,19-.15,16-70.62Zm505.88-56.38c-2.45-3-6.24-4.1-11.59-3.36l-42.5,5.81L553.36,242.66l42.51-.44c14-.15,23.32-12,34.28-43.58l12.71-36.55C651,138.9,652.36,127.13,647.72,121.46Zm-27.19,49.39L615,186.9c-6.12,17.72-9.13,19.27-12.15,19.41l-18.26.8,17.21-50.45,21.56-2.29a4.59,4.59,0,0,1,1,0C624.67,155.12,624.88,158.28,620.53,170.85ZM570.61,127l-21.22,63.14,1.37-60.49-26.33,3.47L492.07,232l9.34-95.84-22.89,2.94L429,230.29l5.28-17-28.84,1.16,21.3-69.22-20.14,2.51-.16.56-57.25,7-5.06,17.3c.71-5.82-.05-9.7-2.25-12.29s-5.32-3.5-9.54-3l-42.35,5L268,242.72l-3.1-78.3L242.66,167,201.29,240.4,205.54,223l-33.62,1.13,1-4.33,31.33-1.57,5.15-20.79-31.74,2.27,1-4.41,33.71-2.95,5.77-22.9-54.07,6L147.83,246.3l50.36-.41v0l21.28-.18,6.89-12.63,21-.58.49,13,19.44-.17-.17.62,19.07-.16,5.57-20.31,17.88-.68h.29c.07.7,0,2.55-1.34,7.16l-3.85,13.67,19.08-.18,4.61-16.18c2.68-9.34,2.88-15.13.52-18.57,5.3-4.18,8.16-11.05,10.89-20.49l1.54-5.34c.2-.7.4-1.38.58-2l17.64-1.66-18.84,64.13,19.1-.17,19.56-65.83,18.1-1.73-20.3,66.8,44.32-.42v0l21.22-.2,9.1-17.13,20.55-.65-1.71,17.51,36.86-.37,19.55-59.43L526,242.94l25-.26,40-118.4Zm-332,84L246,197.53l.52,13.07Zm82.68-22.06-.79,2.74c-1.86,6.53-3.63,6.65-4.48,6.7l-17.11,1.12,3.63-13.05L321,184.76a8.41,8.41,0,0,1,1.12,0A17.66,17.66,0,0,1,321.3,188.94Zm153.83,9.52-8.4.48L477,179.64Z"/><path class="cls-26" d="M143.37,179.55l-5.06,22.58-24.92,1.79L118,182.26l-15.87,1.67-12.26,61,15.15-.12,4.58-22.42,24.55-1.13L129,244.59l15.15-.12,15.07-66.64Zm100.44-10.84L201.38,244l17-.14,6.88-12.61,23.9-.66.5,13,16.53-.15-3.05-77ZM235.39,213l12.19-22.29.87,21.63Zm-65.83,13.06,1.88-8.05,31.35-1.57,4.2-17-31.72,2.26,1.94-8.17,33.73-3,4.79-19-50.09,5.53-15.47,67.28,48.31-.39L203.15,225ZM646.28,122.64c-2-2.46-5.25-3.34-9.9-2.7L595,125.6,556,240.77l39.88-.41c13.08-.14,21.9-11.61,32.54-42.33l12.72-36.55C648.85,139.28,650.4,127.67,646.28,122.64Zm-24,48.82-5.56,16c-5.94,17.21-9.31,20.46-13.82,20.66l-21,.92,18.48-54.15,22.73-2.42c1.82-.2,2.38.23,2.65.57C627.58,155.33,624.65,164.65,622.29,171.46ZM479.7,140.81l-55,101.26,17-.16,9.08-17.11,23.75-.75-1.72,17.56,16.55-.16,10.05-103.17Zm-2.88,59.42-13.28.76,16.22-30.54Zm-144.31-41L291.41,164l-21.85,80,15.2-.13,5.55-20.27,19.24-.73c1.42-.07,1.73.35,1.84.48,1.12,1.43-.49,7.16-1,9.05l-3.17,11.27,15.2-.13,4.24-14.85c2.92-10.21,2.82-15.81-.52-18.36,6-3.65,9-10.49,11.92-20.71l1.55-5.34c3.56-12.25,3.81-19.29.82-22.81C338.73,159.55,336.07,158.76,332.51,159.19Zm-9.43,30.26-.78,2.74c-1.95,6.85-4.11,7.92-6.15,8.05l-19.72,1.29,4.67-16.81,19.72-1.81c1.57-.15,2.49,0,2.83.39S324.29,185.25,323.08,189.45ZM572,128.7l-24.75,73.65,1.6-70.56-23,3-34.9,106.61,15.25-.15,23-69.9-1.32,69.68,21.73-.22,38.59-114.32ZM404.23,150.48,350.58,157l-6.95,23.77,18.52-1.74-18.91,64.36,15.22-.14L378,177.55l18.53-1.77Zm-1.39,66,21.23-69-16.09,2-28.25,93,43.61-.41,8.33-26.76Z"/><path class="cls-31" d="M103.12,185.07l13.27-1.4-4.56,21.61,27.49-2,5.06-22.61,13.29-1.44-14.47,64-12.62.1,5.08-23.42-27.13,1.24L104,243.55l-12.62.1Z"/><path class="cls-32" d="M166.65,178.28,214.09,173,210,189.47l-33.74,3-2.54,10.69,31.71-2.26-3.57,14.41-31.37,1.57L168,227.38l33.58-1.12-4.05,16.54-45.78.37Z"/><path class="cls-33" d="M244.58,169.87l17.34-2,2.95,74.36-14,.13-.5-13-25.84.71-6.88,12.6-14.1.11Zm-11.34,44.51,16.49-.84-1.1-27.32Z"/><path class="cls-34" d="M292.38,165.17l40.27-4.75c10.29-1.23,10.15,8.41,5.75,23.58l-1.55,5.34c-3.24,11.22-6.41,17.85-13.14,20.93l-.06.22c3.44,1.17,5.69,4.33,1.79,17.92l-4,14-12.62.12,2.72-9.69c2.4-8.5,1.92-11.25-2.06-11.1l-20.14.77-5.55,20.24-12.63.11Zm2.38,37.71,21.48-1.4c3.51-.23,5.57-3,7.26-8.95l.78-2.74c2.09-7.3.58-8.5-3.57-8.12l-20.57,1.89Z"/><path class="cls-35" d="M351.54,158.15l50.94-6.21-6.92,22.69L377,176.4,357.53,242l-12.63.11,19-64.5-18.52,1.74Z"/><path class="cls-36" d="M408.93,150.61l13.39-1.67-21.18,68.83L430,216.61l-7.54,24.22-41,.39Z"/><path class="cls-37" d="M480.49,142l17.45-2.25-9.79,100.51-14,.13,1.72-17.58-25.88.81-9.07,17.1-14.11.13Zm-19.08,60.39L478,201.4l3.66-37.08Z"/><path class="cls-38" d="M526.77,136l20.81-2.74-1.74,76.91H546l27-80.28L586.37,128,548.71,239.61l-19.58.2,1.44-76.27h-.11l-25.17,76.5-12.64.12Z"/><path class="cls-39" d="M596,126.73l40.6-5.56c13.47-1.86,13.88,9.83,3.39,39.9l-12.72,36.55C617,227,608.47,239,595.84,239.12l-38.14.39Zm-15.78,83.68,22.8-1c5.49-.24,9.14-4.71,14.94-21.49l5.55-16c5.88-17,5.21-21.18-.46-20.57l-23.51,2.5Z"/><g class="cls-40"><path class="cls-41" d="M742.76,236.76C745.25,247.28,612,258.23,445,261.22s-304.29-3.11-306.78-13.64S269,226.11,436,223.12,740.27,226.24,742.76,236.76Z"/></g><g class="cls-42"><path class="cls-43" d="M689.88,237.71c.86,3.61-110.1,8.53-247.83,11S192,250.25,191.11,246.64s110.1-8.54,247.84-11S689,234.09,689.88,237.71Z"/></g><g class="cls-44"><path class="cls-17" d="M650.4,238.41c.27,1.15-93.48,3.76-209.41,5.83s-210.13,2.83-210.4,1.69,93.49-3.76,209.42-5.83S650.13,237.27,650.4,238.41Z"/></g><g class="cls-45"><path class="cls-41" d="M621,251.41c1.93,8.6-125,17.27-283.53,19.37S48.87,267.61,46.94,259s125-17.27,283.53-19.37S619.07,242.81,621,251.41Z"/></g><g class="cls-46"><path class="cls-43" d="M570.79,252.07c.67,3-104.82,6.75-235.61,8.48s-237.37.75-238-2.2S202,251.6,332.77,249.87,570.14,249.12,570.79,252.07Z"/></g><g class="cls-47"><path class="cls-17" d="M533.3,252.57c.21.94-88.86,2.88-198.95,4.33s-199.5,1.89-199.71,1,88.86-2.88,199-4.33S533.09,251.64,533.3,252.57Z"/></g><g class="cls-48"><path class="cls-43" d="M668.14,123.68c1,3.17-111.77,18.55-252,34.36s-254.69,26.06-255.72,22.9,111.77-18.55,252-34.36S667.11,120.51,668.14,123.68Z"/></g><g class="cls-49"><path class="cls-17" d="M628,128.21c.32,1-95.06,12.61-213.06,25.92S201,177.41,200.65,176.41s95-12.61,213.06-25.92S627.63,127.21,628,128.21Z"/></g><g class="cls-50"><path class="cls-41" d="M727.33,101.25c1.68,4.77-64.68,17.77-148.21,29s-152.61,16.54-154.29,11.77S489.5,124.29,573,113,725.65,96.48,727.33,101.25Z"/></g><g class="cls-51"><path class="cls-43" d="M700.87,104.82c.58,1.64-54.83,10.5-123.75,19.8s-125.26,15.5-125.83,13.86S506.11,128,575,118.69,700.3,103.18,700.87,104.82Z"/></g><g class="cls-52"><path class="cls-17" d="M681.11,107.49c.19.51-46.69,7.28-104.7,15.1S471.22,136.33,471,135.82s46.7-7.28,104.71-15.11S680.93,107,681.11,107.49Z"/></g></g></g></svg>