<svg xmlns="http://www.w3.org/2000/svg" xmlns:xlink="http://www.w3.org/1999/xlink" width="150" height="40" viewBox="0 0 150 40">
  <metadata><?xpacket begin="﻿" id="W5M0MpCehiHzreSzNTczkc9d"?>
<x:xmpmeta xmlns:x="adobe:ns:meta/" x:xmptk="Adobe XMP Core 5.6-c140 79.160451, 2017/05/06-01:08:21        ">
   <rdf:RDF xmlns:rdf="http://www.w3.org/1999/02/22-rdf-syntax-ns#">
      <rdf:Description rdf:about=""/>
   </rdf:RDF>
</x:xmpmeta>
                                                                                                    
                                                                                                    
                                                                                                    
                                                                                                    
                                                                                                    
                                                                                                    
                                                                                                    
                                                                                                    
                                                                                                    
                                                                                                    
                                                                                                    
                                                                                                    
                                                                                                    
                                                                                                    
                                                                                                    
                                                                                                    
                                                                                                    
                                                                                                    
                                                                                                    
                                                                                                    
                           
<?xpacket end="w"?></metadata>
<defs>
    <style>
      .cls-1 {
        fill: #003f52;
        fill-rule: evenodd;
        filter: url(#filter);
      }
    </style>
    <filter id="filter" x="-2" y="0.031" width="88" height="39.969" filterUnits="userSpaceOnUse">
      <feFlood result="flood" flood-color="#d42e12"/>
      <feComposite result="composite" operator="in" in2="SourceGraphic"/>
      <feBlend result="blend" in2="SourceGraphic"/>
    </filter>
  </defs>
  <path class="cls-1" d="M-2,17.958l8.907,6.995c2.458-1.521,5.718-3.283,9.436-5.218A70.567,70.567,0,0,0,8.8,13.924,114.067,114.067,0,0,0-2,17.958h0Zm3.31-9.11L8.8,13.924a118.687,118.687,0,0,1,12.313-3.83c-1.9-1.2-4.2-2.7-7.368-4.864A103.162,103.162,0,0,0,1.311,8.848h0ZM16.344,19.734a89.426,89.426,0,0,1,6.874,6.126c3.634-2.068,7-3.8,10.181-5.309A71.827,71.827,0,0,0,27.27,15a108.032,108.032,0,0,0-10.927,4.734h0Zm6.874,6.125a45.243,45.243,0,0,1,7.368,7.835q-4.6,3.531-7.841,6.307-4.049-4.4-8.567-8.673a90.713,90.713,0,0,1,9.039-5.469h0ZM33.4,20.551a30.025,30.025,0,0,1,6.643,6.621,103.817,103.817,0,0,1,10.029-5.84c-1.783-1.8-3.792-3.628-5.9-5.476A92.015,92.015,0,0,0,33.4,20.551h0ZM27.271,15q5.4-1.8,11.419-3.755a36.2,36.2,0,0,0-5.5-4.105c-3.437.769-7.509,1.759-12.076,2.955A32.818,32.818,0,0,1,27.271,15h0ZM33.192,7.14Q29.786,4.762,26,2.62A68.057,68.057,0,0,1,39.107.871c2.529,1.517,4.816,2.916,6.569,4.051A95.881,95.881,0,0,0,33.192,7.14h0Zm5.5,4.106A92.731,92.731,0,0,1,50.324,8.436l4.247,3.724c-3.12.943-6.649,2.185-10.4,3.7l-5.477-4.61h0Zm6.986-6.324c3.162-.472,6.283-0.887,9.259-1.1,1.012,0.785,2.172,1.756,3.659,3.139l-8.27,1.472a21.948,21.948,0,0,0-4.648-3.514h0Zm9.259-1.1L50.084,0.212a57.96,57.96,0,0,1,10.23.016l3.86,2.962c-2.687.05-5.715,0.239-9.239,0.634h0Zm3.659,3.139c3.017-.428,5.936-0.84,8.684-1.137l2.5,2.3q-3.7.841-7.994,1.923L58.594,6.964h0ZM69.782,8.127c2.4-.563,4.675-1.031,6.66-1.289L78.9,9.272q-2.622.932-5.931,2Q71.374,9.7,69.782,8.127h0Zm-2.5-2.3q-1.553-1.319-3.105-2.636c2.917-.1,5.634-0.21,7.865-0.18l2.57,2.151-7.33.666h0Zm7.33-.667,1.834,1.678L81.9,5.987,80.52,4.8c-1.571.041-3.428,0.138-5.912,0.359h0Zm-2.57-2.15-2.726-2.04a62.712,62.712,0,0,1,6.321.341L78.32,3.1l-6.281-.092h0ZM78.32,3.1l2.767,2.169L86,4.6,84.163,3.375,78.32,3.1h0ZM54.571,12.16l4.649,4.66A41.068,41.068,0,0,1,65.5,14.114q-1.859-2.032-3.717-4.062c-2.1.538-4.468,1.22-7.216,2.108h0Z"/>
</svg>
