<svg id="Layer_1" width="60px" height="30px" viewBox="0 0 30 14.9" data-name="Layer 1" xmlns="http://www.w3.org/2000/svg" ><defs><style>.cls-1{fill:#d42e12;}</style></defs><title>location_pin2</title><path class="cls-1" d="M23,1.82a5.6,5.6,0,1,1-4,1.66,5.6,5.6,0,0,1,4-1.66M23,.49A6.95,6.95,0,1,0,30,7.4,6.94,6.94,0,0,0,23,.49Z"/><path class="cls-1" d="M23.05,2.44h.17a5,5,0,0,1-.16,10h-.17a5,5,0,0,1,.16-10m0-.38a5.38,5.38,0,0,0-.17,10.75h.18a5.38,5.38,0,0,0,.17-10.76Z"/><polygon class="cls-1" points="23.05 6.38 23.05 6.38 23.05 6.38 23.05 6.38 23.05 6.38"/><path class="cls-1" d="M28.09,6.24S28,5.85,28,5.85a7.16,7.16,0,0,0-.71.15c-.11,0-1.32.21-1.36.22a2.89,2.89,0,0,1-1.84-.07,1.23,1.23,0,0,1-.38-1s0-1.32,0-1.32,0-1.5,0-1.52H22.5v0a2.44,2.44,0,0,0,0,.27V3.1c0,.15,0,.31,0,.46s0,.37,0,.55v.4a5,5,0,0,1,0,.67,1.33,1.33,0,0,1-.37,1,1.43,1.43,0,0,1-1.2.28c-.54-.09-1.08-.17-1.61-.27L18.11,6l0,.31s-.1.76-.1.76l.54.07L20,7.37a2.34,2.34,0,0,1,1.27.44A1.06,1.06,0,0,1,21.52,9a6.37,6.37,0,0,1-1.08,1.72c-.05.08-.56.71-.48.8a8.81,8.81,0,0,0,.73.5s.25-.35.35-.51c.31-.5.67-1,1-1.45s.67-.86,1.17-.86.9.61,1.18.94l.18.21.17.19.4.48c.15.17.29.34.43.52,0,0,.2.22.2.22l.79-.54-.46-.52c-.21-.25-.91-1-1-1.08a2.6,2.6,0,0,1-.56-1,.93.93,0,0,1,.28-1,1.13,1.13,0,0,1,.5-.22l1.32-.25L27.47,7a6.86,6.86,0,0,0,.75-.17A3.28,3.28,0,0,0,28.09,6.24Zm-4.7,2.1a1,1,0,0,1-.33.06,1,1,0,0,1-1-.69,1,1,0,0,1,.63-1.28.93.93,0,0,1,.32,0h0a1,1,0,0,1,1,.68A1,1,0,0,1,23.39,8.34Z"/><circle class="cls-1" cx="23.07" cy="7.37" r="0.49"/><circle class="cls-1" cx="22.45" cy="6.61" r="0.21"/><circle class="cls-1" cx="23.75" cy="6.62" r="0.21"/><circle class="cls-1" cx="23.94" cy="7.85" r="0.21"/><circle class="cls-1" cx="23.09" cy="8.39" r="0.21"/><circle class="cls-1" cx="22.12" cy="7.83" r="0.21"/><path class="cls-1" d="M21.25,3.06a6.43,6.43,0,0,1,1.56-.45l.08.39a5.86,5.86,0,0,0-2.1.5,5.65,5.65,0,0,0-1.38.86A5.51,5.51,0,0,1,21.25,3.06Z"/><path class="cls-1" d="M21.36,3.6a6,6,0,0,1,1.56-.45l.08.39a5.66,5.66,0,0,0-2.1.5,5.91,5.91,0,0,0-1.39.86A5.66,5.66,0,0,1,21.36,3.6Z"/><path class="cls-1" d="M21.47,4.14A6.3,6.3,0,0,1,23,3.69l.08.39a5.81,5.81,0,0,0-2.1.5,5.91,5.91,0,0,0-1.39.86A5.66,5.66,0,0,1,21.47,4.14Z"/><path class="cls-1" d="M26.9,4.78a6.19,6.19,0,0,1,.78,1.42l-.35.16a6.34,6.34,0,0,0-1-1.93,5.79,5.79,0,0,0-1.16-1.16A5.74,5.74,0,0,1,26.9,4.78Z"/><path class="cls-1" d="M26.39,5a5.75,5.75,0,0,1,.79,1.43l-.36.16a6,6,0,0,0-.95-1.94A5.74,5.74,0,0,0,24.71,3.5,5.68,5.68,0,0,1,26.39,5Z"/><path class="cls-1" d="M25.89,5.23a5.75,5.75,0,0,1,.79,1.43l-.36.16a5.87,5.87,0,0,0-1-1.94,5.69,5.69,0,0,0-1.15-1.15A5.67,5.67,0,0,1,25.89,5.23Z"/><path class="cls-1" d="M26.93,10.1a5.77,5.77,0,0,1-1,1.27l-.29-.27a6.06,6.06,0,0,0,1.43-1.62A5.57,5.57,0,0,0,27.69,8,5.59,5.59,0,0,1,26.93,10.1Z"/><path class="cls-1" d="M26.53,9.73a6,6,0,0,1-1,1.27l-.29-.27A5.93,5.93,0,0,0,26.66,9.1a5.57,5.57,0,0,0,.63-1.5A5.64,5.64,0,0,1,26.53,9.73Z"/><path class="cls-1" d="M26.13,9.35a5.75,5.75,0,0,1-1,1.27l-.28-.27a6.1,6.1,0,0,0,1.43-1.63,5.91,5.91,0,0,0,.63-1.5A5.7,5.7,0,0,1,26.13,9.35Z"/><path class="cls-1" d="M22.09,12.05a6.08,6.08,0,0,1-1.55-.48l.14-.37a5.87,5.87,0,0,0,2,.73,6,6,0,0,0,1.63,0A5.83,5.83,0,0,1,22.09,12.05Z"/><path class="cls-1" d="M22.29,11.54a6.08,6.08,0,0,1-1.55-.48l.14-.37a5.85,5.85,0,0,0,2,.73,6,6,0,0,0,1.63,0A5.88,5.88,0,0,1,22.29,11.54Z"/><path class="cls-1" d="M22.5,11a5.89,5.89,0,0,1-1.56-.48l.15-.36a6,6,0,0,0,2,.73,5.59,5.59,0,0,0,1.63,0A5.64,5.64,0,0,1,22.5,11Z"/><path class="cls-1" d="M18.48,8.2a5.56,5.56,0,0,1-.17-1.61h.39a5.81,5.81,0,0,0,.13,2.15,6,6,0,0,0,.61,1.51A5.74,5.74,0,0,1,18.48,8.2Z"/><path class="cls-1" d="M19,8.19a5.59,5.59,0,0,1-.17-1.62h.39a5.88,5.88,0,0,0,.13,2.16A6.12,6.12,0,0,0,20,10.23,5.57,5.57,0,0,1,19,8.19Z"/><path class="cls-1" d="M19.58,8.18a6,6,0,0,1-.17-1.62h.39a6.1,6.1,0,0,0,.13,2.16,5.92,5.92,0,0,0,.62,1.51A5.67,5.67,0,0,1,19.58,8.18Z"/><path class="cls-1" d="M21,.42A2.28,2.28,0,0,0,18.72.18c-.49.16-1,.24-1.53.35A8.82,8.82,0,0,1,15,.78a5.13,5.13,0,0,1-1-.11c-.48-.11-.92-.33-1.39-.43a2.71,2.71,0,0,0-1-.06.79.79,0,0,0-.3.12A2.78,2.78,0,0,1,8.9.37,2.44,2.44,0,0,0,9.74,1.7a1.83,1.83,0,0,0,.87.31c.21,0,.41.06.62.08l.37,0a1.56,1.56,0,0,1,.43,0c.35.09.82.46.81.86a1.28,1.28,0,0,1-.27.66,1.27,1.27,0,0,1-.43.4,1.74,1.74,0,0,1-1.77-.28,3,3,0,0,0-3.25-.19s-.9.61-1.09,1.1,1.21-1.06,2.6.19-.94,1.84-.94,1.84C6.5,7.05,5.41,6.26,4.29,6a3.32,3.32,0,0,0-2.74.63S.87,7.08,0,7.72l.26,0a4.1,4.1,0,0,0,.48-.1,8.36,8.36,0,0,1,1.31-.23,2.46,2.46,0,0,1,1.39.26c.49.3.79.82,1.3,1.1a4,4,0,0,0,1.92.54c.55,0,3.18-.72,3,.51-.1.65-.7.91-1.29,1a5.24,5.24,0,0,1-1,0,5,5,0,0,0-.94-.13,3.52,3.52,0,0,0-.84.19,2.8,2.8,0,0,0-1.31.71.07.07,0,0,0,0,.06c.33,0,.67-.22,1-.26,1.11-.12,1.86.68,2.89.88a4.2,4.2,0,0,0,2.05-.15c.56-.2,2.11-1,2.51-.19a1.35,1.35,0,0,1-.37,1.38,3.38,3.38,0,0,1-1.5.39,2.25,2.25,0,0,1-1.15-.13l-.78-.32a3.41,3.41,0,0,0,2.61,1.66c1.8.15,3.4-.74,6.4-.12a8.67,8.67,0,0,0,3-.23l-1.36-.63s-3.92-2-3.92-6.37a8,8,0,0,1,3.6-6.42A3.9,3.9,0,0,1,21,.43Z"/></svg>